<?xml version="1.0" standalone="no"?>
<!DOCTYPE svg PUBLIC "-//W3C//DTD SVG 20010904//EN"
 "http://www.w3.org/TR/2001/REC-SVG-20010904/DTD/svg10.dtd">
<svg version="1.0" xmlns="http://www.w3.org/2000/svg"
 width="1024.000000pt" height="1024.000000pt" viewBox="0 0 1024.000000 1024.000000"
 preserveAspectRatio="xMidYMid meet">

<g transform="translate(0.000000,1024.000000) scale(0.100000,-0.100000)"
fill="#000000" stroke="none">
<path d="M0 5120 l0 -5120 5120 0 5120 0 0 4340 c0 3449 -3 4340 -13 4340 -9
0 -9 2 0 8 14 9 14 82 -1 101 -8 11 -8 13 1 8 8 -5 11 73 12 309 0 294 -1 315
-17 310 -13 -5 -13 -2 3 10 14 12 16 18 7 21 -9 3 -10 9 -3 17 8 9 5 12 -11
12 -11 -1 -23 5 -25 12 -4 9 2 11 20 7 24 -6 26 -4 25 27 -1 18 -3 27 -5 21
-7 -20 -19 -15 -32 13 -13 30 -7 46 17 42 14 -3 18 7 20 55 2 37 -1 57 -8 57
-6 0 -8 -4 -5 -10 3 -6 -4 -10 -17 -10 l-23 0 25 18 c24 16 39 51 23 53 -4 1
-30 2 -58 4 -62 3 -62 2 -47 17 9 9 15 9 23 1 9 -9 15 -8 26 3 8 8 20 14 26
14 7 0 6 -4 -3 -10 -8 -5 -11 -12 -7 -16 3 -4 13 -2 21 5 11 9 15 9 18 -1 3
-7 5 15 4 48 0 43 -4 60 -12 57 -6 -2 -20 4 -29 14 -10 10 -20 16 -23 15 -2
-2 -6 -1 -9 2 -4 3 0 6 7 6 19 0 3 13 -20 17 -20 3 -28 -12 -11 -19 5 -1 3 -8
-4 -15 -10 -9 -13 10 -13 103 0 63 -2 117 -4 120 -3 2 -43 5 -89 6 -48 0 -90
6 -99 13 -21 17 -50 26 -50 15 0 -5 -6 -10 -13 -13 -6 -2 -4 -3 6 -2 9 2 17
-1 17 -6 0 -5 -14 -9 -31 -9 -25 0 -30 3 -25 17 6 16 5 16 -11 1 -15 -13 -41
-16 -143 -14 -69 1 -131 5 -138 10 -6 4 -12 3 -12 -2 0 -5 -14 -9 -30 -9 -34
0 -36 20 -2 25 15 2 19 8 15 19 -5 13 -2 15 11 10 10 -4 21 -7 24 -7 4 0 0 -5
-8 -10 -13 -8 -12 -10 3 -10 21 0 23 18 2 26 -22 9 -18 23 5 17 11 -3 20 -9
20 -13 0 -4 10 -10 21 -13 17 -4 19 -3 10 6 -14 14 -15 30 -1 22 5 -3 10 -1
10 5 0 7 -8 9 -22 5 -17 -6 -20 -4 -14 10 5 14 4 16 -7 7 -8 -7 -17 -9 -21 -5
-10 10 -46 11 -40 1 10 -15 -8 -31 -18 -17 -6 10 -7 7 -3 -9 5 -19 2 -23 -24
-28 -17 -4 -28 -10 -25 -15 3 -5 10 -7 15 -4 5 3 6 -1 3 -9 -7 -18 -64 -23
-64 -6 0 19 5 25 20 22 12 -3 13 -1 3 9 -18 19 -16 29 4 22 16 -6 16 -5 5 10
-8 9 -11 21 -7 27 4 6 -13 10 -50 10 -48 0 -57 -3 -66 -22 l-10 -23 5 23 c4
22 2 23 -54 20 -45 -2 -56 -6 -49 -15 6 -6 9 -23 7 -36 -1 -13 3 -31 9 -39 11
-13 -3 -15 -104 -17 l-117 -2 32 30 c17 17 39 31 47 31 8 0 15 4 15 9 0 6 9 8
20 6 14 -3 20 2 20 16 0 15 -7 19 -39 19 -25 0 -41 -5 -45 -15 -3 -8 -11 -15
-18 -15 -9 0 -9 3 2 11 13 9 12 10 -2 5 -10 -3 -18 -1 -18 4 0 6 -7 10 -15 10
-8 0 -15 -5 -15 -11 0 -5 4 -8 9 -4 6 3 15 -4 21 -15 9 -17 7 -26 -10 -50 -24
-33 -30 -36 -48 -18 -9 9 -12 9 -12 0 0 -7 -9 -12 -20 -12 -22 0 -25 7 -11 29
6 9 4 22 -6 37 -8 13 -14 27 -14 31 1 13 -23 10 -38 -5 -8 -7 -22 -11 -33 -9
-11 3 -24 -3 -32 -15 -8 -11 -19 -17 -24 -14 -6 3 -13 0 -15 -6 -4 -10 -6 -10
-6 0 -1 8 8 16 18 19 11 3 21 12 23 21 4 13 -3 17 -34 19 -24 2 -38 -2 -38 -9
0 -9 -3 -9 -12 0 -18 18 -108 16 -108 -3 0 -8 9 -15 19 -15 34 0 49 -10 44
-31 -6 -22 7 -25 26 -6 10 10 11 9 6 -5 -4 -11 -2 -18 4 -18 7 0 14 7 17 15 5
12 10 10 24 -8 22 -26 18 -36 -7 -16 -9 8 -14 9 -10 3 4 -8 -2 -11 -18 -10
-14 0 -25 4 -25 8 0 4 -7 4 -17 1 -11 -4 -14 -3 -9 5 4 7 1 12 -8 12 -9 0 -16
7 -16 15 0 8 -7 15 -16 15 -8 0 -12 -4 -9 -10 3 -5 1 -10 -5 -10 -7 0 -9 7 -6
16 17 44 -70 76 -101 36 -12 -16 -13 -16 -7 0 6 17 -204 18 -4230 18 l-4236 0
0 -5120z m8710 5080 c0 -5 -5 -10 -11 -10 -5 0 -7 5 -4 10 3 6 8 10 11 10 2 0
4 -4 4 -10z m158 -5 c8 -54 7 -58 -20 -62 -21 -3 -26 0 -22 11 3 9 -3 17 -15
21 -12 3 -21 11 -21 17 0 6 8 7 18 3 32 -13 52 -14 52 -3 0 5 -7 8 -15 4 -9
-3 -15 0 -15 9 0 16 36 17 38 0z m-358 -25 c0 -5 -4 -10 -10 -10 -5 0 -10 5
-10 10 0 6 5 10 10 10 6 0 10 -4 10 -10z m55 -28 c-6 -7 -34 11 -29 19 3 5 11
3 19 -4 7 -6 12 -13 10 -15z m700 18 c-3 -5 -1 -10 4 -10 6 0 11 5 11 10 0 6
11 10 25 10 18 0 25 -5 25 -20 0 -17 -7 -20 -50 -20 -51 0 -64 11 -32 29 22
13 25 13 17 1z m-455 -15 c0 -10 -10 -15 -30 -15 -16 0 -30 4 -30 9 0 8 10 12
53 20 4 0 7 -6 7 -14z m-330 -5 c0 -5 -2 -10 -4 -10 -3 0 -8 5 -11 10 -3 6 -1
10 4 10 6 0 11 -4 11 -10z m1445 0 c3 -5 1 -10 -4 -10 -6 0 -11 5 -11 10 0 6
2 10 4 10 3 0 8 -4 11 -10z m-3256 -142 c-1 -17 -2 -19 -6 -6 -4 17 -35 18
-421 21 l-417 2 423 3 422 2 -1 -22z m811 -185 c0 -230 -8 -272 -12 -63 -1 78
-7 138 -13 142 -6 5 -6 8 3 8 8 0 12 18 12 55 l0 55 -344 -6 c-234 -3 -346 -1
-351 6 -4 7 105 10 349 10 l356 0 0 -207z m736 2 c1 -113 -1 -205 -5 -205 -3
0 -11 11 -18 25 -7 16 -7 23 -1 19 7 -5 9 3 4 22 -11 43 -11 166 -1 188 5 12
5 17 -2 13 -11 -7 -14 22 -4 38 3 6 6 28 6 50 0 43 -14 50 -63 33 -13 -4 -21
-4 -18 1 3 5 -110 7 -264 5 -165 -2 -270 1 -270 7 0 5 125 9 318 9 l317 0 1
-205z m914 -1 c0 -192 -1 -206 -17 -199 -10 4 -32 8 -50 9 -17 0 -30 3 -28 7
2 3 -5 13 -16 22 -19 17 -19 16 -13 -8 6 -23 4 -24 -28 -22 -19 2 -45 11 -58
21 l-25 18 25 -7 c14 -4 28 -12 31 -17 3 -5 10 2 16 15 10 22 9 23 -38 24 -54
1 -64 -14 -26 -40 l22 -16 -22 0 c-13 -1 -23 4 -23 9 0 6 -5 10 -11 10 -5 0
-7 -4 -4 -10 4 -6 -16 -9 -53 -7 -47 1 -58 5 -54 16 4 10 1 13 -11 8 -12 -4
-17 -1 -17 9 0 10 6 14 15 10 11 -4 15 2 16 22 0 15 3 21 6 15 3 -10 40 -13
134 -13 113 0 129 -2 129 -16 0 -15 26 -43 41 -44 4 0 6 8 5 18 0 10 6 16 17
16 14 -2 17 7 17 46 0 33 -5 50 -14 53 -11 4 -13 1 -9 -11 6 -15 4 -15 -10 -4
-16 13 -13 47 4 36 5 -3 6 2 3 11 -4 8 -1 22 6 30 11 13 10 14 -4 9 -9 -3 -16
-10 -16 -16 0 -5 -4 -7 -9 -4 -11 7 -9 -44 3 -62 5 -8 4 -18 -3 -25 -15 -15
-14 -24 4 -24 8 0 12 4 9 8 -2 4 0 10 6 14 6 3 10 -4 10 -18 0 -16 -8 -28 -25
-35 -20 -9 -26 -9 -24 1 5 39 -3 290 -9 282 -9 -14 -52 -17 -52 -4 0 6 4 8 8
5 4 -2 14 0 22 5 13 9 13 10 0 6 -8 -2 -25 5 -38 16 -13 12 -25 17 -30 11 -4
-5 -6 -8 -3 -7 6 3 31 -25 31 -35 0 -6 -23 -10 -50 -9 -52 0 -77 16 -66 42 8
21 -11 19 -24 -2 -9 -17 -11 -17 -21 0 -8 14 -23 17 -77 16 -37 -1 -73 -6 -79
-11 -9 -7 -13 -7 -13 1 0 6 -11 11 -25 11 -19 0 -23 -4 -18 -17 4 -12 0 -11
-13 5 -19 23 -54 23 -54 0 0 -5 -5 -6 -12 -2 -7 4 -8 3 -4 -4 9 -15 36 -16 36
-2 0 6 11 3 24 -5 23 -15 25 -15 35 2 9 17 12 16 36 -9 22 -24 23 -28 8 -29
-10 -1 -22 0 -28 1 -5 1 -29 2 -52 2 -24 0 -43 4 -43 9 0 5 -4 9 -10 9 -5 0
-7 -7 -4 -15 5 -13 2 -14 -22 -5 -15 6 -33 9 -40 6 -8 -3 -11 1 -7 10 3 8 12
13 19 10 8 -3 14 1 14 8 0 8 6 16 13 19 6 2 -19 4 -58 5 -106 0 -115 1 -115
12 0 7 142 10 405 10 l405 0 0 -206z m887 -148 c-1 -195 -6 -358 -10 -362 -4
-4 -13 -2 -20 6 -9 10 -9 11 1 6 15 -9 17 37 1 66 -9 16 -8 19 3 12 11 -6 11
-5 -1 9 -7 9 -10 17 -5 17 5 0 10 12 11 27 1 17 -2 21 -7 13 -4 -7 -15 -10
-24 -7 -9 4 -16 2 -16 -3 0 -6 5 -10 12 -10 6 0 3 -9 -7 -20 -10 -11 -15 -20
-11 -20 4 0 1 -6 -6 -14 -10 -9 -35 -12 -87 -10 -63 3 -78 0 -104 -18 -25 -18
-30 -19 -24 -5 3 9 2 17 -3 17 -6 0 -10 -15 -10 -32 0 -18 4 -28 8 -22 5 7 15
6 32 -3 22 -11 16 -12 -54 -10 -72 2 -79 5 -82 24 -2 13 3 24 14 29 28 12 42
13 42 3 0 -5 7 -9 15 -9 8 0 15 5 15 11 0 5 -4 8 -9 4 -5 -3 -12 -1 -15 4 -8
13 -66 11 -66 -2 0 -5 -6 -5 -13 2 -8 6 -24 8 -37 6 -13 -3 -34 2 -47 10 -29
19 -34 19 -26 -1 7 -20 -18 -38 -29 -21 -12 19 -9 30 6 24 11 -4 13 1 10 20
-4 23 -3 25 11 13 9 -8 15 -8 15 -2 0 18 -18 24 -39 12 -11 -6 -18 -17 -15
-24 3 -8 1 -17 -5 -21 -8 -4 -11 34 -11 124 0 81 4 131 10 131 6 0 10 5 10 11
0 5 -4 7 -10 4 -6 -4 -10 17 -10 56 0 67 14 74 16 8 1 -30 7 -44 24 -56 l23
-16 -28 -14 c-20 -11 -24 -18 -16 -26 13 -13 52 -17 45 -5 -4 5 -12 7 -20 4
-8 -3 -11 0 -7 9 3 8 9 13 13 10 15 -9 19 23 5 35 -8 7 -12 17 -9 22 4 6 9 5
14 -2 5 -8 8 3 8 25 0 20 4 41 9 46 5 5 8 -71 8 -174 l0 -182 208 -3 207 -2 1
22 c1 13 1 42 1 66 -1 26 3 42 11 42 8 0 6 4 -3 11 -12 9 -13 12 -1 16 11 5
11 7 0 14 -12 7 -11 11 3 26 10 9 21 13 25 9 4 -4 1 -11 -7 -16 -12 -8 -12
-10 -1 -10 8 0 11 -7 8 -19 -3 -11 2 -29 10 -40 8 -12 10 -21 4 -21 -6 0 -11
-5 -11 -11 0 -8 4 -8 13 -1 7 6 12 34 12 69 l0 58 -32 -1 c-27 -2 -32 2 -30
17 2 10 6 21 10 25 3 4 4 12 0 17 -12 19 -9 58 4 69 7 6 13 16 13 22 0 6 -4 5
-9 -3 -7 -11 -10 -10 -14 5 -4 16 -3 97 2 140 2 16 31 13 31 -3 0 -7 -4 -13
-9 -13 -6 0 -9 -9 -8 -20 1 -11 5 -20 9 -20 4 0 7 -8 6 -17 -4 -51 3 -94 15
-90 8 2 12 25 12 64 1 46 -2 60 -12 56 -17 -7 -16 1 2 37 9 17 12 30 7 30 -5
0 -8 10 -7 23 1 12 -6 31 -16 41 -11 11 -19 14 -19 8 0 -7 -7 -12 -15 -12 -8
0 -15 4 -15 9 0 13 -104 11 -112 -3 -6 -8 -8 -7 -8 2 0 6 -12 12 -28 12 -15 0
-34 -6 -41 -12 -11 -11 -12 -10 -6 2 5 9 -1 7 -15 -5 -20 -17 -23 -18 -17 -2
6 15 0 17 -44 17 -37 0 -48 -3 -43 -12 6 -10 4 -10 -7 0 -16 14 -89 16 -89 2
0 -15 -30 -12 -31 3 0 9 -2 9 -6 0 -5 -14 13 -36 37 -46 8 -3 -2 -6 -22 -6
-20 -1 -40 4 -44 11 -5 8 -1 9 12 5 18 -7 18 -6 2 7 -10 7 -18 18 -18 25 0 6
-5 11 -11 11 -5 0 -7 -4 -4 -10 3 -5 1 -10 -4 -10 -6 0 -11 6 -11 13 0 19
-152 17 -158 -3 -3 -8 -1 -12 3 -8 9 9 50 -40 41 -49 -3 -4 -6 -1 -6 5 0 16
-17 15 -23 -2 -4 -10 3 -12 24 -10 l29 4 0 -246 c0 -178 -3 -243 -11 -238 -7
4 -10 25 -7 53 3 32 0 51 -9 60 -9 8 -11 17 -5 24 18 23 22 86 6 101 -9 9 -10
17 -4 21 5 3 10 11 10 16 0 6 -5 7 -11 3 -8 -4 -8 0 0 14 12 23 12 139 0 120
-5 -7 -9 -4 -12 8 -2 10 -3 1 -1 -21 1 -22 0 -34 -3 -27 -2 6 -9 9 -15 6 -5
-3 0 -13 11 -21 17 -11 19 -17 8 -27 -25 -26 -44 -15 -42 23 4 52 4 53 16 45
6 -3 3 8 -5 25 -11 20 -15 51 -14 91 l2 60 392 0 393 0 -2 -354z m-1947 314
c0 -5 -5 -10 -11 -10 -5 0 -7 5 -4 10 3 6 8 10 11 10 2 0 4 -4 4 -10z m326 -1
c4 -8 9 -8 17 0 6 6 18 11 27 11 9 -1 6 -6 -10 -15 -14 -8 -19 -14 -12 -15 7
0 10 -5 7 -11 -5 -6 -11 -4 -19 7 -7 9 -18 14 -24 10 -7 -4 -12 -1 -12 8 0 18
16 21 26 5z m294 -10 c0 -6 -4 -7 -10 -4 -5 3 -10 11 -10 16 0 6 5 7 10 4 6
-3 10 -11 10 -16z m660 12 c0 -5 -11 -11 -25 -13 -14 -3 -25 -3 -25 -1 0 3 34
19 48 22 1 1 2 -3 2 -8z m45 -19 c-8 -8 -25 10 -19 20 4 6 9 5 15 -3 4 -7 6
-15 4 -17z m132 21 c-4 -3 -2 -12 5 -20 8 -11 7 -12 -6 -7 -9 3 -16 9 -16 13
0 9 11 21 18 21 3 0 2 -3 -1 -7z m143 -3 c0 -5 -5 -10 -11 -10 -5 0 -7 5 -4
10 3 6 8 10 11 10 2 0 4 -4 4 -10z m129 -8 c11 -11 11 -16 1 -25 -10 -9 -11
-9 -6 1 5 7 -2 16 -18 22 -14 5 -26 11 -26 14 0 9 36 0 49 -12z m117 -8 c1
-14 -6 -19 -25 -21 -22 -1 -23 1 -10 10 9 7 14 18 11 26 -3 8 1 12 9 9 8 -3
14 -13 15 -24z m-1186 1 c-14 -8 -19 -14 -11 -15 8 0 12 -3 8 -6 -3 -3 -11 -3
-18 2 -9 5 -7 11 6 21 11 7 24 13 29 13 6 -1 0 -7 -14 -15z m-3362 -2 c-10 -2
-28 -2 -40 0 -13 2 -5 4 17 4 22 1 32 -1 23 -4z m70 0 c-10 -2 -26 -2 -35 0
-10 3 -2 5 17 5 19 0 27 -2 18 -5z m1233 -69 c-2 -95 -11 -94 -11 1 0 43 3 75
6 72 4 -3 6 -36 5 -73z m2124 66 c4 -7 12 -7 24 0 17 9 31 5 31 -9 0 -4 -25
-7 -55 -7 -30 -1 -55 3 -55 9 0 5 7 7 15 3 8 -3 15 -1 15 4 0 13 17 13 25 0z
m628 -5 c-3 -9 -8 -14 -10 -11 -3 3 -2 9 2 15 9 16 15 13 8 -4z m347 -6 c0
-12 -43 -5 -47 8 -2 6 7 8 22 6 14 -3 25 -9 25 -14z m180 11 c0 -5 -5 -10 -11
-10 -5 0 -7 5 -4 10 3 6 8 10 11 10 2 0 4 -4 4 -10z m-4392 -7 c-10 -2 -28 -2
-40 0 -13 2 -5 4 17 4 22 1 32 -1 23 -4z m4147 -3 c3 -5 1 -10 -4 -10 -6 0
-11 5 -11 10 0 6 2 10 4 10 3 0 8 -4 11 -10z m-4032 -7 c-7 -2 -21 -2 -30 0
-10 3 -4 5 12 5 17 0 24 -2 18 -5z m2680 -7 c3 -8 -2 -16 -12 -19 -14 -3 -17
0 -14 14 6 22 19 25 26 5z m1494 8 c-3 -3 -12 -4 -19 -1 -8 3 -5 6 6 6 11 1
17 -2 13 -5z m-3967 -24 c56 -13 -2 -10 -105 5 l-90 14 80 -5 c44 -3 96 -9
115 -14z m967 -123 c-2 -23 -3 -1 -3 48 0 50 1 68 3 42 2 -26 2 -67 0 -90z
m821 -119 c-1 -181 -4 -221 -7 -143 -6 118 -3 395 5 395 2 0 3 -114 2 -252z
m742 0 c1 -246 0 -252 -18 -233 -15 16 -16 24 -7 42 13 24 13 45 1 81 -4 13
-3 28 2 35 9 11 8 89 -1 164 -3 22 -1 31 7 27 6 -3 3 1 -8 10 -17 14 -17 16
-2 31 19 20 19 22 4 31 -7 5 -8 3 -3 -6 5 -9 4 -11 -3 -6 -9 5 -9 13 -1 27 6
11 8 27 5 35 -3 8 1 14 9 14 11 0 14 -43 15 -252z m-2447 225 c-7 -2 -19 -2
-25 0 -7 3 -2 5 12 5 14 0 19 -2 13 -5z m50 -10 c-7 -2 -19 -2 -25 0 -7 3 -2
5 12 5 14 0 19 -2 13 -5z m180 -34 c53 -12 95 -24 93 -27 -5 -4 -168 30 -231
49 -29 9 -29 9 5 4 19 -3 79 -15 133 -26z m2152 13 c-3 -3 -11 0 -18 7 -9 10
-8 11 6 5 10 -3 15 -9 12 -12z m1805 -44 c0 -5 -4 -7 -9 -3 -5 3 -12 -3 -14
-12 -3 -10 -4 -6 -4 8 1 18 6 25 14 22 7 -3 13 -9 13 -15z m74 6 c10 -25 -2
-30 -19 -8 -15 19 -15 19 -9 -1 5 -16 4 -17 -4 -5 -6 8 -8 18 -6 22 9 14 32 9
38 -8z m-2937 -19 c2 -11 0 -14 -3 -7 -4 9 -43 12 -145 12 -77 0 -138 3 -136
8 3 4 67 7 143 7 131 0 139 -1 141 -20z m751 -4 c2 -13 -1 -28 -7 -34 -8 -8
-11 -2 -11 19 0 28 -3 31 -32 32 -18 0 -36 -5 -40 -11 -6 -8 -10 -9 -15 -1 -5
6 -35 10 -69 9 -34 -1 -70 2 -80 6 -11 5 42 7 116 6 134 -2 135 -2 138 -26z
m554 12 c1 -10 2 -81 2 -158 l1 -140 315 -5 c173 -3 285 -6 248 -8 -38 -1 -68
-6 -68 -12 0 -5 -5 -10 -11 -10 -5 0 -7 5 -4 10 3 6 1 10 -4 10 -6 0 -11 -6
-11 -12 0 -9 -3 -9 -8 -3 -4 7 -91 12 -237 14 -126 1 -231 4 -233 6 -2 1 -3
21 -4 44 0 39 -2 41 -33 41 l-32 0 -2 60 c-1 43 2 60 10 60 10 0 10 3 1 12
-16 16 -15 31 1 25 6 -2 18 5 25 17 9 14 12 16 8 4 -3 -12 0 -18 9 -18 10 0
15 10 15 30 0 28 -3 30 -34 30 -19 0 -38 5 -41 10 -4 6 12 10 39 10 37 0 46
-4 48 -17z m348 -18 c0 -19 -4 -35 -9 -35 -5 0 -8 11 -6 25 1 14 -1 25 -4 26
-3 0 -15 2 -26 4 -10 2 -26 -2 -34 -8 -12 -10 -13 -9 -7 1 6 11 0 12 -31 6
-21 -4 -41 -12 -45 -18 -5 -8 -8 -7 -8 2 0 13 -46 17 -52 3 -1 -4 -12 0 -22
10 -19 19 -16 19 112 19 l132 0 0 -35z m-2530 0 c535 -143 1120 -418 1572
-737 522 -370 1026 -928 1356 -1503 121 -210 312 -610 336 -705 9 -35 -11 7
-70 145 -93 220 -198 427 -333 654 -71 120 -280 411 -379 531 -187 223 -412
459 -434 452 -5 -1 -7 2 -4 7 6 8 -27 40 -154 150 -25 21 -37 26 -43 18 -6 -8
-7 -6 -3 6 3 9 2 17 -3 17 -5 0 -28 18 -52 41 -49 46 -93 72 -104 61 -5 -4 -5
-2 -2 4 4 6 -2 19 -13 29 -11 10 -20 14 -20 9 0 -5 -5 -1 -11 8 -5 10 -85 68
-176 129 -128 85 -168 108 -175 97 -7 -10 -8 -9 -4 5 3 9 1 17 -4 17 -5 0 -26
11 -46 25 -20 14 -44 25 -54 25 -9 0 -30 12 -47 28 -28 24 -55 40 -193 112
-140 73 -308 143 -322 134 -6 -4 -8 -2 -5 3 11 18 -380 160 -678 246 -85 25
-35 18 65 -8z m3420 -147 c0 -94 -3 -168 -7 -164 -5 4 -9 74 -10 154 0 81 -1
151 -2 156 -1 5 -9 2 -19 -7 -24 -22 -29 -21 -35 3 -3 11 -10 20 -16 20 -17 0
-13 -27 5 -34 12 -5 13 -8 2 -20 -16 -17 -29 -11 -21 9 3 8 0 15 -6 15 -6 0
-11 -4 -11 -10 0 -17 -37 -11 -44 6 -5 14 -4 15 9 4 10 -8 15 -9 15 -1 0 6 8
11 18 12 14 0 14 1 -3 8 -17 6 -55 7 -96 2 -5 0 -7 -5 -4 -11 3 -5 1 -10 -4
-10 -6 0 -11 5 -11 11 0 6 -6 9 -14 6 -7 -3 -19 0 -25 6 -8 8 -11 8 -11 -2 0
-7 -5 -9 -12 -4 -7 4 -30 8 -51 9 -20 0 -40 4 -44 7 -3 4 84 7 195 7 l202 0 0
-172z m-1077 127 c-3 -8 0 -15 6 -15 6 0 11 -5 11 -11 0 -8 -4 -9 -13 0 -8 6
-17 8 -20 4 -4 -3 -7 3 -7 14 0 11 3 23 6 26 11 11 24 -3 17 -18z m1417 15 c0
-5 -4 -10 -10 -10 -5 0 -10 5 -10 10 0 6 5 10 10 10 6 0 10 -4 10 -10z m-2000
-6 c0 0 -10 -9 -22 -20 -16 -13 -19 -14 -10 -2 10 13 10 17 0 21 -7 3 -3 4 10
4 12 -1 22 -2 22 -3z m-2565 -14 l50 -7 -45 -1 c-25 0 -67 3 -95 8 l-50 7 45
1 c25 0 68 -3 95 -8z m2925 0 c0 -5 -4 -10 -10 -10 -5 0 -10 5 -10 10 0 6 5
10 10 10 6 0 10 -4 10 -10z m930 0 c8 -5 12 -11 10 -14 -3 -2 -14 2 -24 10
-22 15 -10 19 14 4z m125 0 c3 -5 1 -10 -4 -10 -6 0 -11 5 -11 10 0 6 2 10 4
10 3 0 8 -4 11 -10z m220 0 c3 -5 1 -10 -4 -10 -6 0 -11 5 -11 10 0 6 2 10 4
10 3 0 8 -4 11 -10z m-3992 -26 c62 -9 117 -20 122 -26 6 -6 -1 -7 -20 -2 -16
4 -82 15 -145 25 -63 9 -105 17 -92 18 13 1 74 -6 135 -15z m2044 -141 c-2
-32 -3 -8 -3 52 0 61 1 87 3 58 2 -29 2 -78 0 -110z m850 137 c1 -11 -2 -20
-5 -20 -4 0 -8 9 -9 20 -1 11 2 20 5 20 4 0 8 -9 9 -20z m933 4 c0 -2 -9 -4
-20 -4 -11 0 -20 4 -20 9 0 5 9 7 20 4 11 -3 20 -7 20 -9z m143 2 c8 -21 2
-49 -13 -54 -9 -3 -11 3 -8 22 3 14 1 26 -4 26 -5 0 -6 5 -3 10 9 14 22 12 28
-4z m-1613 -16 c0 -19 -20 -27 -33 -13 -8 7 11 33 24 33 5 0 9 -9 9 -20z
m1086 -4 c15 -16 15 -36 -1 -48 -7 -5 -6 -11 1 -15 13 -10 14 -43 1 -43 -5 0
-7 -9 -4 -20 3 -11 2 -20 -3 -20 -13 0 -19 39 -6 43 8 3 8 8 -1 17 -8 9 -9 19
-2 32 6 12 6 24 -1 37 -18 34 -10 42 16 17z m890 -1 c-3 -9 0 -15 9 -15 8 0
15 -5 15 -10 0 -7 -6 -7 -20 0 -21 11 -25 22 -13 33 11 12 15 8 9 -8z m57 -3
c-6 -14 -25 -12 -30 4 -2 5 5 10 16 10 11 0 17 -5 14 -14z m-730 -17 c4 -8 2
-17 -3 -20 -6 -4 -10 3 -10 14 0 25 6 27 13 6z m-3363 -11 c0 -2 -13 -4 -30
-4 -16 0 -30 4 -30 8 0 5 14 7 30 4 17 -2 30 -6 30 -8z m2060 -4 c0 -5 -5 -10
-11 -10 -5 0 -7 5 -4 10 3 6 8 10 11 10 2 0 4 -4 4 -10z m-2046 -57 c-7 -32
-13 -64 -14 -70 0 -7 -4 -13 -8 -13 -5 0 -2 32 7 70 9 39 19 70 23 70 3 0 0
-26 -8 -57z m4023 35 c-3 -8 -6 -5 -6 6 -1 11 2 17 5 13 3 -3 4 -12 1 -19z
m-2799 5 c-26 -2 -71 -2 -100 0 -29 2 -8 3 47 3 55 0 79 -1 53 -3z m755 -3
c-12 -5 -32 -7 -44 -5 -12 2 -30 0 -40 -5 -12 -7 -20 -7 -24 1 -4 6 -13 8 -21
5 -8 -3 -14 -1 -14 4 0 6 36 10 83 9 58 0 76 -3 60 -9z m610 -5 c4 -8 2 -17
-4 -21 -6 -3 -3 -12 8 -21 17 -14 17 -14 0 -9 -10 3 -21 6 -23 6 -2 0 -4 14
-4 30 0 31 14 40 23 15z m1477 -14 c-7 -13 -7 -22 0 -26 5 -3 10 -11 10 -16 0
-6 -6 -4 -13 3 -17 17 -17 58 0 58 10 0 11 -5 3 -19z m-3810 -27 c223 -63 590
-197 590 -214 0 -5 -55 14 -122 41 -165 67 -342 126 -550 184 -32 8 -58 18
-58 20 0 9 13 6 140 -31z m1973 22 c4 -10 1 -13 -8 -9 -8 3 -12 9 -9 14 7 12
11 11 17 -5z m1877 4 c0 -5 -4 -10 -10 -10 -5 0 -10 5 -10 10 0 6 5 10 10 10
6 0 10 -4 10 -10z m-555 -50 c0 -34 1 -35 45 -41 l45 -6 -48 -1 c-43 -2 -49 1
-57 24 -6 14 -7 31 -4 36 5 8 -3 9 -24 5 -25 -5 -32 -3 -32 9 0 11 9 14 38 12
35 -3 37 -5 37 -38z m115 28 c0 -4 -7 -8 -15 -8 -8 0 -15 4 -15 8 0 5 7 9 15
9 8 0 15 -4 15 -9z m-4553 -50 c-3 -7 -5 -2 -5 12 0 14 2 19 5 13 2 -7 2 -19
0 -25z m4553 26 c0 -8 -19 -13 -24 -6 -3 5 1 9 9 9 8 0 15 -2 15 -3z m-4317
-11 c-13 -2 -33 -2 -45 0 -13 2 -3 4 22 4 25 0 35 -2 23 -4z m4162 -14 c0 -7
-9 -15 -20 -17 -16 -3 -17 -1 -5 7 10 7 11 11 3 11 -7 0 -13 4 -13 9 0 5 8 8
18 7 9 -2 17 -9 17 -17z m-4052 4 c-7 -2 -21 -2 -30 0 -10 3 -4 5 12 5 17 0
24 -2 18 -5z m4597 3 c0 -3 -4 -8 -10 -11 -5 -3 -10 -1 -10 4 0 6 5 11 10 11
6 0 10 -2 10 -4z m-4470 -14 c0 -4 -18 -6 -40 -4 -22 2 -40 6 -40 8 0 2 18 4
40 4 22 0 40 -3 40 -8z m197 -14 c-3 -8 -6 -5 -6 6 -1 11 2 17 5 13 3 -3 4
-12 1 -19z m4241 11 c-2 -6 -8 -10 -13 -10 -5 0 -11 4 -13 10 -2 6 4 11 13 11
9 0 15 -5 13 -11z m38 -47 c-4 -3 -11 0 -17 8 -8 13 -10 13 -19 0 -8 -13 -11
-13 -22 -1 -7 8 -8 11 -2 8 7 -4 17 0 24 8 10 13 14 13 27 -1 9 -8 12 -18 9
-22z m-4089 -4 c-3 -8 -6 -5 -6 6 -1 11 2 17 5 13 3 -3 4 -12 1 -19z m2003
-11 l225 -3 -235 1 c-227 0 -235 1 -238 20 -4 19 -3 19 10 3 12 -16 38 -18
238 -21z m-2203 -9 c-3 -7 -5 -2 -5 12 0 14 2 19 5 13 2 -7 2 -19 0 -25z
m1653 12 c17 -5 -1 -8 -57 -9 -49 -1 -83 3 -83 9 0 12 103 12 140 0z m2090
-14 c0 -2 -9 -2 -20 1 -11 3 -20 9 -20 15 0 5 9 4 20 -2 11 -6 20 -12 20 -14z
m-3553 -18 c-3 -8 -6 -5 -6 6 -1 11 2 17 5 13 3 -3 4 -12 1 -19z m-200 -30
c-3 -7 -5 -2 -5 12 0 14 2 19 5 13 2 -7 2 -19 0 -25z m2980 13 c0 -11 -5 -18
-9 -15 -4 3 -5 11 -1 19 7 21 12 19 10 -4z m408 -11 c3 -18 2 -20 -10 -10 -8
6 -11 18 -8 26 7 18 12 13 18 -16z m-710 10 c3 -6 -1 -7 -9 -4 -18 7 -21 14
-7 14 6 0 13 -4 16 -10z m441 -2 c4 -7 3 -8 -4 -4 -7 4 -12 2 -12 -5 0 -7 -3
-10 -6 -6 -6 5 3 27 11 27 2 0 7 -5 11 -12z m-3579 -30 c-3 -7 -5 -2 -5 12 0
14 2 19 5 13 2 -7 2 -19 0 -25z m650 0 c-3 -7 -5 -2 -5 12 0 14 2 19 5 13 2
-7 2 -19 0 -25z m2249 5 c-6 -6 -36 9 -36 18 0 5 9 4 20 -3 10 -7 18 -14 16
-15z m779 17 c3 -5 1 -10 -4 -10 -6 0 -11 5 -11 10 0 6 2 10 4 10 3 0 8 -4 11
-10z m-431 -8 c3 -5 -1 -9 -9 -9 -8 0 -12 4 -9 9 3 4 7 8 9 8 2 0 6 -4 9 -8z
m1486 -2 c12 -8 10 -9 -7 -7 -12 2 -26 6 -29 10 -11 11 19 8 36 -3z m-3637
-50 c70 -23 126 -45 123 -47 -2 -3 -19 0 -38 6 -18 6 -76 25 -128 42 -52 16
-99 35 -105 41 -7 8 -5 9 5 6 8 -3 73 -24 143 -48z m1754 44 c-3 -3 -12 -4
-19 -1 -8 3 -5 6 6 6 11 1 17 -2 13 -5z m460 0 c-3 -3 -12 -4 -19 -1 -8 3 -5
6 6 6 11 1 17 -2 13 -5z m1473 -4 c0 -5 -5 -10 -11 -10 -5 0 -7 5 -4 10 3 6 8
10 11 10 2 0 4 -4 4 -10z m-4333 -32 c-3 -8 -6 -5 -6 6 -1 11 2 17 5 13 3 -3
4 -12 1 -19z m-254 5 c-7 -2 -19 -2 -25 0 -7 3 -2 5 12 5 14 0 19 -2 13 -5z
m65 -10 c-10 -2 -26 -2 -35 0 -10 3 -2 5 17 5 19 0 27 -2 18 -5z m1432 -52
c-1 -14 -2 -14 -10 0 -5 9 -21 20 -35 23 -14 4 -25 11 -25 16 0 5 16 2 35 -7
19 -9 35 -24 35 -32z m2330 -17 c0 -8 4 -13 9 -10 5 3 11 -1 15 -9 4 -11 -1
-14 -19 -13 -20 2 -25 8 -25 31 0 16 4 26 10 22 6 -3 10 -13 10 -21z m-2735
-5 c15 -14 -7 -10 -35 7 l-25 15 25 -7 c14 -3 29 -10 35 -15z m2791 -1 c-7
-34 -7 -34 -15 -13 -9 22 -5 35 10 35 5 0 7 -10 5 -22z m324 12 c0 -5 -4 -10
-10 -10 -5 0 -10 5 -10 10 0 6 5 10 10 10 6 0 10 -4 10 -10z m-2070 -10 c8 -5
11 -10 5 -10 -5 0 -17 5 -25 10 -8 5 -10 10 -5 10 6 0 17 -5 25 -10z m70 -2
c0 -11 -22 -10 -39 1 -10 7 -7 9 12 8 15 -1 27 -5 27 -9z m1489 -580 c-1 -326
-4 -582 -6 -568 -3 14 -10 31 -16 39 -9 12 -9 13 1 7 10 -6 12 29 10 186 -1
106 -6 196 -11 199 -6 4 -6 13 -1 20 12 20 12 93 0 102 -7 5 -6 11 4 18 12 9
13 12 1 16 -11 5 -11 7 0 14 10 6 10 9 2 9 -9 0 -10 7 -4 23 8 23 8 66 0 83
-3 5 -4 18 -2 29 9 62 10 125 1 125 -5 0 -6 9 -2 23 4 12 7 38 5 57 -3 45 -3
55 3 118 3 45 2 53 -11 47 -13 -4 -14 -3 -4 9 10 12 -7 14 -121 14 -73 0 -141
-5 -152 -10 -13 -7 -16 -7 -11 2 5 8 0 7 -14 -2 -16 -9 -26 -10 -39 -2 -10 7
-62 10 -132 9 -131 -3 -150 -5 -150 -17 0 -13 -17 -9 -34 7 -13 13 -71 15
-405 15 -238 0 -391 4 -391 10 0 6 285 9 740 10 l740 0 -1 -592z m-3462 560
c-3 -8 -6 -5 -6 6 -1 11 2 17 5 13 3 -3 4 -12 1 -19z m4108 -6 c-3 -3 -11 0
-18 7 -9 10 -8 11 6 5 10 -3 15 -9 12 -12z m-3744 -19 c-12 -20 -14 -14 -5 12
4 9 9 14 11 11 3 -2 0 -13 -6 -23z m1062 1 c203 -103 681 -413 664 -431 -6 -6
-67 28 -67 38 0 6 -130 92 -140 93 -3 0 -11 6 -18 13 -8 7 -18 10 -24 7 -6 -4
-8 -2 -5 4 9 14 -129 102 -353 227 -66 37 -120 69 -120 71 0 8 11 4 63 -22z
m1817 8 c-8 -3 -18 -10 -22 -16 -5 -7 -8 -5 -8 6 0 18 19 29 35 20 5 -3 2 -8
-5 -10z m-3070 -39 c-11 -17 -11 -17 -6 0 3 10 7 26 7 35 1 15 2 15 6 0 2 -10
-1 -25 -7 -35z m1520 22 c17 -9 30 -18 30 -21 0 -4 -59 23 -69 32 -10 9 13 3
39 -11z m1085 5 c3 -5 -3 -10 -15 -10 -12 0 -18 5 -15 10 3 6 10 10 15 10 5 0
12 -4 15 -10z m60 0 c3 -5 1 -10 -4 -10 -6 0 -11 5 -11 10 0 6 2 10 4 10 3 0
8 -4 11 -10z m155 0 c0 -5 -15 -9 -32 -9 l-33 1 30 8 c17 4 31 8 33 9 1 0 2
-3 2 -9z m280 0 c0 -5 -8 -10 -17 -10 -15 0 -16 2 -3 10 19 12 20 12 20 0z
m-393 -6 c-3 -3 -12 -4 -19 -1 -8 3 -5 6 6 6 11 1 17 -2 13 -5z m-3210 -40
c-3 -3 -12 -4 -19 -1 -8 3 -5 6 6 6 11 1 17 -2 13 -5z m96 -11 c-7 -2 -19 -2
-25 0 -7 3 -2 5 12 5 14 0 19 -2 13 -5z m2632 -3 c4 -7 -30 -10 -104 -10 -61
0 -111 4 -111 9 0 13 207 14 215 1z m955 -257 c0 -146 -3 -263 -7 -259 -5 4
-8 17 -9 29 -1 12 -5 31 -9 41 -6 14 -5 17 3 12 8 -5 10 -2 6 8 -3 9 -10 16
-15 16 -5 0 -9 5 -9 11 0 5 4 8 9 5 5 -3 11 4 14 17 7 33 2 355 -6 363 -4 4
-143 6 -309 5 -343 -2 -388 -4 -405 -14 -9 -5 -11 -3 -7 6 4 11 -13 13 -96 10
-60 -1 -100 1 -100 7 0 6 171 10 470 10 l470 0 0 -267z m940 257 c0 -5 -4 -10
-10 -10 -5 0 -10 5 -10 10 0 6 5 10 10 10 6 0 10 -4 10 -10z m-4457 -7 c-7 -2
-21 -2 -30 0 -10 3 -4 5 12 5 17 0 24 -2 18 -5z m698 -27 c-14 -36 -22 -33 -9
5 6 16 12 28 14 26 3 -2 0 -16 -5 -31z m-586 14 c42 -11 1 -11 -50 -1 -34 7
-35 9 -10 9 17 0 44 -4 60 -8z m903 -62 c17 -7 32 -15 32 -19 0 -4 -32 6 -70
22 -39 15 -88 34 -110 40 -22 7 -40 16 -40 20 0 7 68 -15 188 -63z m3452 52
c-11 -7 -11 -10 -2 -10 10 0 10 -3 0 -14 -9 -10 -15 -10 -20 -3 -8 13 9 37 26
37 6 0 4 -5 -4 -10z m-4277 -7 c-7 -2 -21 -2 -30 0 -10 3 -4 5 12 5 17 0 24
-2 18 -5z m4124 -7 c9 -9 10 -416 1 -416 -5 0 -8 45 -8 100 0 80 -3 100 -14
100 -8 0 -16 -3 -19 -7 -2 -5 -2 -2 -1 5 2 6 -1 12 -5 12 -5 0 -12 -6 -14 -12
-4 -8 -6 -9 -6 -2 -1 6 6 17 14 24 12 10 18 10 30 0 12 -10 14 -7 13 25 -1 20
-7 39 -15 42 -7 3 -13 10 -13 15 0 6 6 5 15 -2 13 -10 14 -4 14 50 -1 53 -3
60 -18 54 -9 -4 -25 -6 -36 -4 -11 1 -114 4 -228 5 -161 2 -211 0 -221 -11
-10 -9 -16 -10 -24 -2 -7 7 -15 8 -19 4 -4 -4 -1 -11 7 -16 17 -11 9 -13 -14
-4 -9 3 -16 14 -16 25 0 15 9 18 53 21 94 5 518 1 524 -6z m216 -18 c-2 -5 -9
-8 -14 -8 -6 0 -7 5 -4 10 3 6 1 10 -5 10 -6 0 -8 4 -5 10 4 6 11 5 19 -3 8
-6 12 -15 9 -19z m-1593 -22 c0 -3 -4 -8 -10 -11 -5 -3 -10 -1 -10 4 0 6 5 11
10 11 6 0 10 -2 10 -4z m1020 -16 c0 -5 -9 -6 -20 -3 -11 3 -17 9 -15 14 7 10
35 1 35 -11z m563 5 c-3 -9 -8 -14 -10 -11 -3 3 -2 9 2 15 9 16 15 13 8 -4z
m-769 -27 c-3 -5 2 -11 10 -14 20 -8 20 -21 2 -39 -12 -12 -15 -12 -19 0 -3 7
-1 16 6 19 9 5 9 7 0 12 -7 3 -13 18 -13 32 0 20 3 23 9 12 6 -8 7 -18 5 -22z
m88 17 c2 3 5 -2 5 -10 0 -8 -6 -15 -12 -15 -9 0 -12 -35 -10 -130 1 -71 -2
-130 -6 -130 -5 0 -10 30 -11 68 -1 37 -2 78 -2 92 -1 14 -5 31 -10 39 -6 9
-5 12 1 8 7 -4 13 8 15 31 3 20 1 39 -4 40 -4 2 -5 8 -2 13 4 6 10 6 18 0 7
-6 15 -9 18 -6z m-525 -9 c-5 -16 -34 -19 -39 -4 -4 8 3 14 19 14 14 1 22 -3
20 -10z m558 -6 c3 -5 1 -10 -4 -10 -6 0 -11 5 -11 10 0 6 2 10 4 10 3 0 8 -4
11 -10z m55 0 c0 -5 -8 -10 -17 -10 -15 0 -16 2 -3 10 19 12 20 12 20 0z m610
0 c0 -5 -5 -10 -11 -10 -5 0 -7 5 -4 10 3 6 8 10 11 10 2 0 4 -4 4 -10z
m-3808 -49 c111 -38 368 -143 374 -152 6 -10 -12 -3 -191 68 -55 22 -135 53
-177 68 -54 19 -78 33 -78 44 0 11 2 13 8 4 4 -7 33 -21 64 -32z m2568 23 c0
-8 -19 -13 -24 -6 -3 5 1 9 9 9 8 0 15 -2 15 -3z m17 -16 c-2 -7 3 -22 12 -33
15 -19 15 -19 -4 -5 -11 8 -21 15 -23 16 -4 2 10 34 15 34 3 0 3 -6 0 -12z
m-1564 -77 c136 -82 208 -131 191 -131 -5 0 -32 15 -59 33 -63 41 -189 116
-237 142 -33 17 -50 35 -33 35 3 0 65 -36 138 -79z m-1940 62 c-7 -2 -21 -2
-30 0 -10 3 -4 5 12 5 17 0 24 -2 18 -5z m4463 -27 c1 -8 -3 -17 -9 -19 -7 -3
-12 7 -13 25 -1 20 2 26 9 19 6 -6 12 -17 13 -25z m-4352 16 c2 -4 -11 -6 -30
-4 -19 2 -34 6 -34 8 0 8 59 4 64 -4z m3276 -2 c0 -5 -4 -10 -10 -10 -5 0 -10
5 -10 10 0 6 5 10 10 10 6 0 10 -4 10 -10z m-3217 -7 c-7 -2 -19 -2 -25 0 -7
3 -2 5 12 5 14 0 19 -2 13 -5z m3797 -15 c0 -18 -2 -20 -9 -8 -6 8 -7 18 -5
22 9 14 14 9 14 -14z m-3737 5 c-7 -2 -19 -2 -25 0 -7 3 -2 5 12 5 14 0 19 -2
13 -5z m102 -13 c42 -11 1 -11 -50 -1 -34 7 -35 9 -10 9 17 0 44 -4 60 -8z
m3169 -21 c-8 -14 -31 -10 -38 7 -3 8 -2 12 4 9 6 -3 10 -1 10 6 0 8 4 8 15
-1 8 -7 12 -16 9 -21z m446 10 c0 -5 -4 -9 -10 -9 -5 0 -10 7 -10 16 0 8 5 12
10 9 6 -3 10 -10 10 -16z m390 -261 c0 -149 -2 -269 -5 -266 -3 2 -6 79 -8
169 -1 90 -6 170 -10 177 -5 6 -5 18 0 25 4 6 8 42 8 79 l0 66 -45 5 c-25 2
-75 3 -113 3 -37 -1 -67 2 -67 7 0 4 54 7 120 7 l120 0 0 -272z m-3876 247
c117 -25 355 -95 481 -143 386 -145 697 -311 1030 -553 335 -242 661 -583 904
-944 98 -146 199 -315 188 -315 -2 0 -26 37 -52 83 -118 201 -246 377 -434
597 -264 308 -579 570 -960 799 -143 86 -368 195 -606 294 -120 50 -400 138
-535 168 -88 19 -116 27 -100 28 8 0 46 -6 84 -14z m1156 -41 c0 -2 -7 -4 -15
-4 -8 0 -15 4 -15 10 0 5 7 7 15 4 8 -4 15 -8 15 -10z m1844 -13 c4 -5 -3 -7
-14 -4 -23 6 -26 13 -6 13 8 0 17 -4 20 -9z m1006 -31 c0 -5 -4 -10 -10 -10
-5 0 -10 5 -10 10 0 6 5 10 10 10 6 0 10 -4 10 -10z m-4193 -6 c-3 -3 -12 -4
-19 -1 -8 3 -5 6 6 6 11 1 17 -2 13 -5z m46 -11 c-7 -2 -19 -2 -25 0 -7 3 -2
5 12 5 14 0 19 -2 13 -5z m2967 3 c0 -3 -4 -8 -10 -11 -5 -3 -10 -1 -10 4 0 6
5 11 10 11 6 0 10 -2 10 -4z m1196 -23 c-10 -10 -19 5 -10 18 6 11 8 11 12 0
2 -7 1 -15 -2 -18z m-4067 1 c2 -2 -7 -4 -22 -4 -14 0 -29 5 -32 10 -6 10 42
4 54 -6z m4046 -33 c-6 -5 -25 10 -25 20 0 5 6 4 14 -3 8 -7 12 -15 11 -17z
m-3955 9 c0 -5 -2 -10 -4 -10 -3 0 -8 5 -11 10 -3 6 -1 10 4 10 6 0 11 -4 11
-10z m205 -51 c769 -240 1408 -677 1901 -1299 194 -244 323 -456 460 -750 77
-165 179 -419 171 -426 -2 -2 -30 62 -62 143 -82 209 -93 235 -103 229 -4 -2
-14 -1 -22 5 -10 6 -11 9 -2 9 20 0 14 27 -22 98 -19 37 -46 90 -59 117 -42
86 -70 135 -79 135 -4 0 -8 7 -8 15 0 8 -3 15 -8 15 -4 0 -13 15 -21 33 -20
45 -191 297 -202 297 -5 0 -9 5 -9 11 0 6 -6 16 -12 24 -7 7 -20 21 -28 31
-113 140 -164 198 -280 313 -75 75 -160 156 -189 181 -30 25 -76 64 -103 87
-27 24 -61 51 -76 60 -15 10 -34 25 -42 33 -8 9 -44 36 -80 61 -36 24 -66 47
-68 52 -2 4 -10 7 -18 7 -8 0 -14 5 -14 10 0 6 -6 10 -14 10 -8 0 -21 6 -28
13 -26 24 -171 117 -184 117 -7 0 -14 4 -16 9 -1 4 -48 32 -103 60 -55 29
-107 56 -115 62 -14 9 -150 72 -160 74 -3 1 -18 7 -33 13 -16 7 -34 12 -40 12
-7 0 -39 14 -72 31 -33 17 -78 36 -100 44 -41 14 -186 58 -195 59 -3 1 -18 7
-35 13 -16 7 -52 19 -80 27 -46 14 -47 14 -10 9 22 -3 94 -23 160 -44z m3465
-46 c0 -54 -4 -92 -8 -85 -5 7 -8 37 -7 67 1 30 -2 55 -6 55 -4 0 -2 14 4 30
6 17 13 30 14 30 2 0 3 -44 3 -97z m524 85 c-7 -11 -34 -10 -34 1 0 6 9 9 19
8 11 0 17 -5 15 -9z m-1723 -25 c13 -16 12 -17 -3 -4 -10 7 -18 15 -18 17 0 8
8 3 21 -13z m1483 2 c-4 -8 -11 -12 -16 -9 -6 4 -5 10 3 15 19 12 19 11 13 -6z
m-2452 -72 c83 -55 133 -95 101 -82 -24 10 -222 145 -223 152 0 10 -1 10 122
-70z m594 10 c-6 -6 -66 39 -66 49 0 5 16 -3 35 -18 20 -15 34 -29 31 -31z
m1884 47 c0 -5 -4 -10 -10 -10 -5 0 -10 5 -10 10 0 6 5 10 10 10 6 0 10 -4 10
-10z m-1739 -17 c13 -16 12 -17 -3 -4 -10 7 -18 15 -18 17 0 8 8 3 21 -13z
m1957 -8 c-3 -3 -9 2 -12 12 -6 14 -5 15 5 6 7 -7 10 -15 7 -18z m-1687 -2
c13 -16 12 -17 -3 -4 -10 7 -18 15 -18 17 0 8 8 3 21 -13z m1666 -15 c-3 -8
-6 -5 -6 6 -1 11 2 17 5 13 3 -3 4 -12 1 -19z m-174 -3 c4 -8 3 -16 -1 -19 -4
-3 -9 4 -9 15 -2 23 3 25 10 4z m-493 -29 c0 -3 -4 -8 -10 -11 -5 -3 -10 -1
-10 4 0 6 5 11 10 11 6 0 10 -2 10 -4z m270 -10 c0 -3 -4 -8 -10 -11 -5 -3
-10 -1 -10 4 0 6 5 11 10 11 6 0 10 -2 10 -4z m-2327 -168 c49 -33 87 -62 84
-65 -3 -2 -73 41 -156 97 -83 55 -158 103 -166 106 -8 4 -15 10 -15 15 0 10
107 -55 253 -153z m1747 -33 c-1 -107 -5 -195 -8 -195 -5 0 -6 214 -2 388 0 1
2 2 5 2 3 0 5 -88 5 -195z m807 154 c0 -22 -3 -39 -9 -37 -5 2 -9 7 -9 11 1 4
1 21 1 37 0 45 15 36 17 -11z m-1567 -229 c132 -131 274 -291 294 -330 7 -14
-4 -2 -82 85 -87 98 -162 172 -168 166 -4 -3 -4 -1 -1 5 10 17 -297 309 -314
298 -5 -3 -6 2 -3 11 8 20 83 -44 274 -235z m1355 240 c3 -5 1 -10 -4 -10 -6
0 -11 5 -11 10 0 6 2 10 4 10 3 0 8 -4 11 -10z m-285 -70 l0 -49 123 -4 122
-3 -127 -2 c-71 -1 -129 1 -129 6 -7 46 -6 102 1 102 6 0 10 -22 10 -50z m444
25 c3 -8 1 -15 -4 -15 -5 0 -11 -8 -13 -17 -2 -10 -4 -3 -3 14 1 35 10 43 20
18z m-1804 2 c0 -2 -15 -16 -32 -33 l-33 -29 29 33 c28 30 36 37 36 29z m1860
-32 c0 -8 -2 -15 -4 -15 -2 0 -6 7 -10 15 -3 8 -1 15 4 15 6 0 10 -7 10 -15z
m-57 -44 c3 -11 -1 -22 -8 -25 -8 -3 -12 4 -11 20 1 29 12 32 19 5z m-1026
-63 c-3 -7 -5 -2 -5 12 0 14 2 19 5 13 2 -7 2 -19 0 -25z m1081 -43 c-5 -59
-20 -72 -17 -15 2 45 6 60 15 60 3 0 4 -20 2 -45z m-53 6 c-6 -5 -25 10 -25
20 0 5 6 4 14 -3 8 -7 12 -15 11 -17z m220 19 c3 -5 1 -10 -4 -10 -6 0 -11 5
-11 10 0 6 2 10 4 10 3 0 8 -4 11 -10z m-1250 -40 c3 -5 1 -10 -4 -10 -6 0
-11 5 -11 10 0 6 2 10 4 10 3 0 8 -4 11 -10z m1055 0 c0 -5 -4 -10 -10 -10 -5
0 -10 5 -10 10 0 6 5 10 10 10 6 0 10 -4 10 -10z m-1631 -157 c78 -81 141
-152 141 -157 0 -6 -10 1 -23 14 -13 14 -81 85 -152 158 -71 72 -124 132 -118
132 6 0 75 -66 152 -147z m1786 137 c3 -5 1 -10 -4 -10 -6 0 -11 5 -11 10 0 6
2 10 4 10 3 0 8 -4 11 -10z m-1215 -14 c0 -3 -4 -8 -10 -11 -5 -3 -10 -1 -10
4 0 6 5 11 10 11 6 0 10 -2 10 -4z m1040 -27 c0 -5 -4 -7 -10 -4 -5 3 -10 -3
-10 -15 0 -12 -4 -19 -9 -16 -13 9 -1 46 15 46 8 0 14 -5 14 -11z m44 -4 c-4
-8 -8 -15 -10 -15 -2 0 -4 7 -4 15 0 8 4 15 10 15 5 0 7 -7 4 -15z m-176 -254
c1 -140 0 -252 -3 -250 -3 3 -5 114 -6 247 l0 242 -202 2 c-152 1 -180 3 -112
8 50 3 142 6 205 5 l115 0 3 -254z m182 219 c0 -5 -2 -10 -4 -10 -3 0 -8 5
-11 10 -3 6 -1 10 4 10 6 0 11 -4 11 -10z m-69 -43 c-10 -9 -11 -8 -5 6 3 10
9 15 12 12 3 -3 0 -11 -7 -18z m-3831 -46 c0 -24 -63 -182 -90 -226 -30 -49
-119 -128 -136 -121 -8 3 -12 2 -9 -4 6 -10 -54 -45 -63 -36 -3 3 -1 6 4 6 6
0 19 7 30 15 14 11 7 10 -26 -3 -25 -10 -73 -26 -108 -36 -47 -13 -74 -28
-102 -56 -22 -22 -57 -52 -78 -67 -21 -16 -58 -45 -82 -66 -92 -76 -463 -340
-440 -311 8 10 -6 3 -32 -15 -27 -17 -48 -34 -48 -37 0 -3 14 4 30 16 17 12
30 19 30 17 0 -5 -84 -69 -150 -115 l-35 -25 31 29 c17 16 44 39 60 52 50 39
-66 -38 -154 -102 -130 -95 -358 -272 -457 -355 -97 -81 -318 -299 -403 -395
-29 -33 -52 -56 -52 -52 0 17 155 188 286 316 264 258 505 446 1160 904 55 38
154 110 222 160 110 82 124 96 140 139 9 26 20 47 25 47 4 0 5 4 2 10 -6 10
33 95 41 87 3 -2 -5 -21 -17 -41 -11 -20 -19 -36 -16 -36 11 0 47 72 41 82
-10 16 86 107 156 146 61 34 200 90 228 91 6 1 12 -8 12 -18z m2073 -68 c31
-32 54 -59 52 -61 -2 -2 -14 7 -27 20 -71 75 -91 98 -86 98 3 0 31 -26 61 -57z
m-2545 -50 c-3 -68 -12 -115 -27 -155 -26 -67 -82 -154 -98 -151 -6 1 -21 -10
-34 -24 -13 -14 -17 -23 -9 -19 28 14 -44 -44 -105 -84 l-60 -40 -7 27 c-4 15
-3 32 4 40 6 8 8 30 4 57 -9 59 25 193 45 180 5 -3 6 3 2 12 -4 12 -3 15 5 10
8 -5 10 -2 6 8 -11 29 224 236 269 236 6 0 8 -39 5 -97z m2476 -149 c26 -30
46 -54 44 -54 -7 0 -298 288 -298 294 0 12 202 -180 254 -240z m1085 189 c1
-32 0 -55 -2 -53 -9 9 -15 110 -8 110 4 0 9 -26 10 -57z m-618 20 c13 -16 12
-17 -3 -4 -10 7 -18 15 -18 17 0 8 8 3 21 -13z m1429 7 c0 -5 -2 -10 -4 -10
-3 0 -8 5 -11 10 -3 6 -1 10 4 10 6 0 11 -4 11 -10z m-346 -19 c3 -5 -49 -9
-119 -8 -69 0 -125 4 -125 8 0 12 237 12 244 0z m-4336 -17 c42 -9 80 -18 84
-20 4 -2 -15 -25 -42 -50 -31 -29 -62 -74 -89 -127 -35 -69 -41 -77 -41 -52
-1 17 -6 58 -13 93 l-12 63 -74 -51 c-116 -80 -178 -137 -227 -211 -43 -65
-83 -157 -85 -196 -1 -14 -19 69 -38 175 -1 5 -55 -31 -96 -64 -26 -20 -50
-31 -65 -29 -14 1 -17 0 -7 -2 15 -4 5 -18 -50 -76 -74 -79 -125 -164 -147
-248 l-14 -54 -12 45 c-6 25 -17 64 -24 88 l-12 44 -50 -40 c-144 -116 -274
-310 -290 -435 l-7 -49 -28 73 c-16 40 -26 75 -24 77 3 3 8 -4 12 -14 4 -10
13 -25 20 -32 11 -11 13 -11 13 2 0 9 -5 16 -11 16 -5 0 -7 5 -4 10 3 6 1 10
-4 10 -16 0 -13 26 3 40 8 6 12 19 9 27 -5 12 -2 15 10 10 11 -4 14 -2 11 8
-3 8 3 27 15 43 11 16 18 32 14 36 -3 3 -12 -3 -20 -14 -8 -11 -19 -20 -25
-20 -6 0 -24 -12 -42 -26 -17 -14 -67 -49 -110 -77 -67 -44 -85 -62 -113 -112
-32 -59 -43 -103 -23 -90 6 4 9 1 8 -7 -2 -7 3 -12 10 -10 9 2 9 -6 -3 -28 -9
-17 -20 -28 -25 -25 -6 3 -7 0 -5 -7 3 -8 -1 -33 -10 -57 -8 -24 -16 -58 -16
-75 -1 -23 -3 -19 -10 19 -9 51 -8 195 1 195 3 0 5 24 6 53 1 88 49 162 157
240 79 57 73 72 -14 33 -88 -39 -107 -58 -210 -218 -13 -21 -30 -38 -37 -38
-8 0 -10 5 -5 13 4 6 8 26 10 44 3 45 54 142 105 196 24 26 79 67 123 93 44
25 69 43 55 41 -14 -3 -43 -9 -65 -13 -46 -8 -87 -26 -131 -60 -30 -22 -32
-22 -27 -3 3 11 22 33 42 49 23 20 30 30 19 30 -9 0 -18 -3 -20 -7 -2 -5 -21
-24 -42 -43 -22 -19 -36 -29 -31 -21 6 10 2 11 -15 6 l-23 -7 23 32 c40 56
112 120 208 183 88 58 98 68 149 152 103 167 188 245 345 320 126 60 161 66
413 74 224 7 232 8 290 35 131 62 192 69 333 40z m4682 -44 c0 -33 -3 -60 -7
-60 -5 0 -8 27 -8 60 -1 33 3 60 7 60 4 0 8 -27 8 -60z m-702 -27 c0 -52 -3
-68 -7 -48 -4 17 -6 48 -5 70 3 52 3 55 8 55 2 0 4 -35 4 -77z m639 55 c-3 -8
-6 -5 -6 6 -1 11 2 17 5 13 3 -3 4 -12 1 -19z m-285 -70 c-7 -7 -12 -8 -12 -2
0 14 12 26 19 19 2 -3 -1 -11 -7 -17z m-1102 -32 c0 -2 -8 -10 -17 -17 -16
-13 -17 -12 -4 4 13 16 21 21 21 13z m1449 -188 c1 -105 -1 -189 -3 -187 -3 3
-7 83 -9 179 -4 156 -2 200 8 200 2 0 4 -86 4 -192z m-1017 -86 c117 -174 218
-339 218 -356 0 -6 -10 5 -22 24 -83 136 -111 181 -194 305 -52 77 -115 169
-140 205 -40 58 -41 61 -10 26 20 -22 86 -114 148 -204z m-3803 83 c1 -70 -5
-120 -18 -166 -22 -77 -48 -132 -60 -124 -5 2 -15 -3 -22 -12 -10 -12 -10 -14
-1 -9 22 13 12 -8 -20 -41 -32 -33 -56 -44 -42 -20 4 7 3 9 -2 4 -5 -5 -9 -13
-9 -19 0 -14 -53 -54 -61 -46 -3 3 7 30 21 58 30 60 109 261 119 303 13 53 -3
25 -44 -79 -46 -117 -137 -311 -150 -319 -4 -3 -4 14 2 37 5 23 7 52 4 64 -3
12 -1 57 5 100 6 44 12 93 13 109 3 37 32 94 51 102 8 3 13 8 10 12 -5 9 83
97 145 144 56 43 58 39 59 -98z m3611 131 c0 -2 -7 -7 -16 -10 -8 -3 -12 -2
-9 4 6 10 25 14 25 6z m894 -44 c-7 -11 -40 11 -41 27 -2 18 0 17 21 -3 12
-11 21 -23 20 -24z m-3405 23 c58 -20 125 -68 157 -113 22 -30 39 -41 86 -55
163 -48 248 -242 175 -401 l-25 -55 37 -24 c51 -34 94 -122 99 -203 4 -56 0
-71 -38 -155 -42 -90 -51 -136 -36 -189 7 -24 6 -24 -19 5 -28 33 -48 95 -64
195 -6 36 -24 91 -40 123 -16 31 -24 54 -18 51 52 -30 78 -85 79 -169 l0 -60
15 40 c8 22 15 70 16 107 1 73 -12 101 -66 142 -29 22 -111 25 -147 6 -13 -7
-20 -7 -20 0 0 5 7 10 16 10 31 0 122 100 144 157 21 56 25 83 12 83 -8 0 -52
-80 -52 -95 0 -6 -31 -44 -70 -85 -56 -61 -66 -76 -54 -83 21 -12 39 -55 85
-207 21 -69 54 -166 73 -216 50 -129 58 -189 34 -261 -11 -31 -17 -69 -14 -84
3 -15 28 -83 57 -151 29 -67 76 -186 106 -263 116 -299 115 -294 67 -351 l-25
-29 15 32 16 32 -33 -6 c-20 -3 -62 4 -104 16 -83 25 -160 27 -211 6 -20 -9
-46 -15 -57 -14 -41 3 -47 0 -42 -23 6 -22 5 -22 -15 2 -26 32 -20 99 13 144
19 26 20 28 3 16 -50 -39 -69 -93 -53 -156 15 -60 44 -83 120 -95 35 -6 69
-15 76 -20 7 -6 16 -8 21 -5 5 3 7 -5 5 -19 -3 -13 5 -44 18 -69 30 -61 17
-77 -38 -45 l-40 23 -49 -29 c-132 -76 -140 -79 -185 -61 -12 6 -20 -3 -33
-34 -21 -52 -21 -51 10 -40 14 6 40 10 59 10 19 0 46 5 62 11 15 6 52 11 82
11 49 1 58 -3 83 -31 27 -30 35 -62 22 -95 -9 -23 -72 -21 -136 4 -65 25 -92
26 -58 3 14 -9 27 -18 29 -20 6 -4 -37 -82 -58 -106 -15 -17 -14 -18 14 -11
17 5 47 8 68 8 45 1 63 -18 105 -104 47 -95 33 -189 -38 -270 -35 -39 -41 -43
-50 -28 -24 39 -41 48 -98 48 -91 0 -133 10 -142 34 -4 12 -20 31 -34 43 -14
13 -26 27 -26 33 0 5 -7 10 -16 10 -12 0 -8 -10 15 -39 31 -38 41 -69 20 -55
-6 3 -28 9 -48 11 -57 7 -251 53 -285 67 -17 7 -37 20 -45 29 -7 10 -21 17
-31 17 -18 0 -35 25 -31 48 1 6 -3 12 -9 12 -6 0 -18 16 -26 36 l-15 37 -15
-29 c-14 -27 -14 -29 16 -57 27 -25 39 -47 25 -47 -16 0 -266 119 -251 120 22
0 -19 30 -43 30 -32 1 -57 19 -62 45 -3 15 -13 20 -39 21 -65 2 -186 159 -248
322 -41 107 -68 230 -53 245 8 8 6 15 -7 27 -16 15 -18 14 -34 -22 -12 -27
-28 -43 -52 -53 -78 -33 -140 -12 -236 78 -37 34 -91 85 -122 112 -30 28 -68
74 -85 103 -16 28 -33 49 -37 45 -4 -4 -4 1 0 11 5 13 4 17 -3 13 -7 -5 -9 0
-6 13 3 11 0 20 -6 20 -6 0 -8 7 -4 17 4 10 2 14 -4 10 -6 -4 -8 3 -5 18 2 14
0 25 -7 25 -5 0 -8 7 -5 15 4 8 1 15 -5 15 -16 0 -14 107 4 167 18 62 84 139
140 164 49 23 133 24 183 3 111 -46 162 -172 112 -277 -31 -64 -48 -83 -62
-69 -8 8 -4 21 17 52 24 35 27 46 22 91 -8 65 -39 115 -88 139 -41 22 -124 27
-149 10 -11 -8 -7 -9 15 -5 29 6 29 5 -5 -10 -55 -25 -99 -74 -115 -129 -27
-91 -15 -219 29 -304 42 -81 163 -179 211 -170 14 3 30 -1 36 -8 6 -8 16 -11
21 -8 6 4 14 0 19 -7 6 -10 11 -11 19 -3 9 9 6 16 -11 28 -13 9 -29 16 -35 16
-34 0 -125 53 -162 95 -39 45 -97 169 -86 186 3 5 0 9 -5 9 -6 0 -11 7 -11 16
0 8 5 12 10 9 6 -3 10 3 10 15 0 12 -4 18 -10 15 -5 -3 -10 -1 -10 4 0 6 5 11
10 11 6 0 10 6 8 13 -5 25 44 98 82 123 22 15 43 24 47 21 3 -4 -2 -24 -12
-46 -20 -45 -13 -65 20 -57 15 4 30 0 40 -11 16 -15 15 -18 -15 -46 -61 -57
-74 -122 -39 -195 23 -48 63 -72 118 -72 19 0 43 -11 64 -30 34 -29 59 -36 91
-24 28 11 17 46 -29 91 -42 40 -45 46 -45 95 0 81 40 141 54 82 4 -15 22 -58
41 -95 19 -38 31 -69 28 -69 -11 0 51 -50 81 -65 16 -8 39 -15 52 -15 47 0 73
-53 50 -99 -9 -17 -16 -32 -16 -34 0 -11 89 16 127 39 52 30 88 76 103 132 14
54 7 87 -36 177 -19 38 -34 85 -34 104 0 57 36 117 101 168 75 59 129 139 159
237 13 42 26 74 28 71 8 -8 43 16 37 26 -4 5 1 9 9 9 9 0 16 4 16 9 0 10 36
24 62 24 18 0 32 34 17 43 -5 3 -9 13 -9 22 0 18 34 34 203 97 170 64 240 139
272 292 8 36 16 67 18 70 3 2 34 9 69 15 58 9 70 8 111 -10 l47 -21 1 22 c0
12 2 34 4 49 2 19 0 25 -9 22 -9 -4 -15 10 -20 47 -19 143 -176 163 -230 29
-9 -22 -20 -79 -26 -127 -12 -113 -33 -171 -76 -222 -30 -34 -116 -91 -139
-91 -3 0 9 19 25 42 45 62 64 136 55 220 -6 68 -6 69 14 56 12 -7 22 -20 23
-28 0 -8 2 -19 3 -25 2 -5 3 -32 4 -59 2 -79 12 -46 15 50 3 64 0 91 -10 101
-7 8 -15 13 -16 12 -2 -2 -14 0 -27 4 -23 6 -23 8 -17 66 4 34 5 61 2 61 -13
0 -36 -114 -45 -219 -8 -95 -14 -123 -41 -177 -59 -120 -152 -171 -293 -161
-45 3 -104 14 -132 23 l-50 18 63 8 c104 12 155 33 205 87 43 46 66 96 68 151
l1 25 8 -25 c5 -14 6 26 3 91 -8 159 4 208 65 257 90 73 153 136 193 195 22
32 39 60 37 61 -6 6 -174 36 -208 39 l-35 2 32 18 c18 9 61 44 95 76 35 32 70
61 78 64 31 12 178 7 219 -8z m3018 -128 c-2 -23 -3 -1 -3 48 0 50 1 68 3 42
2 -26 2 -67 0 -90z m-867 100 c0 -2 -12 -14 -27 -28 l-28 -24 24 28 c23 25 31
32 31 24z m280 -1 c0 -2 -8 -10 -17 -17 -16 -13 -17 -12 -4 4 13 16 21 21 21
13z m-56 -51 c-39 -31 -58 -36 -24 -7 19 16 37 28 39 26 3 -2 -4 -11 -15 -19z
m-294 -8 c0 -2 -10 -12 -22 -23 l-23 -19 19 23 c18 21 26 27 26 19z m-2580
-27 c-8 -5 -22 -9 -30 -9 -10 0 -8 3 5 9 27 12 43 12 25 0z m2502 -39 c8 12 9
11 5 -1 -6 -25 -28 -17 -55 20 l-25 35 33 -34 c26 -27 34 -31 42 -20z m-2555
23 c-3 -3 -12 -4 -19 -1 -8 3 -5 6 6 6 11 1 17 -2 13 -5z m2843 -7 c0 -2 -12
-14 -27 -28 l-28 -24 24 28 c23 25 31 32 31 24z m-3075 -26 c-3 -6 -11 -11
-17 -11 -6 0 -6 6 2 15 14 17 26 13 15 -4z m3015 -25 c0 -2 -8 -10 -17 -17
-16 -13 -17 -12 -4 4 13 16 21 21 21 13z m1011 -14 c-7 -2 -18 1 -23 6 -8 8
-4 9 13 5 13 -4 18 -8 10 -11z m-595 -219 c60 -94 28 -56 -52 60 -110 160
-101 152 -138 124 -33 -25 -64 -44 -56 -34 3 3 25 21 50 40 l45 34 58 -86 c33
-47 74 -110 93 -138z m887 220 c-51 -2 -135 -2 -185 0 -51 1 -10 3 92 3 102 0
143 -2 93 -3z m-3820 -19 l29 -7 -54 -54 c-80 -83 -146 -133 -165 -126 -12 5
-14 3 -8 -7 5 -9 4 -11 -3 -6 -6 4 -33 0 -59 -9 -37 -13 -77 -16 -174 -13 -70
2 -122 7 -115 11 6 5 -7 6 -29 3 -22 -2 -32 -2 -22 0 9 3 15 9 12 14 -8 14
120 125 183 158 33 18 77 36 98 42 40 10 256 6 307 -6z m-1236 -230 c-4 -113
-6 -124 -40 -195 -21 -45 -53 -90 -79 -114 l-43 -40 35 39 35 40 -45 -34 c-25
-18 -57 -45 -72 -59 -34 -31 -36 -20 -4 22 26 36 83 174 115 283 34 114 23
118 -19 6 -60 -158 -151 -376 -155 -369 0 1 1 65 5 142 5 131 7 144 38 210 24
53 27 64 11 45 l-21 -25 19 34 c10 18 61 74 113 123 l95 90 8 -38 c5 -22 7
-93 4 -160z m3833 112 c0 -2 -8 -10 -17 -17 -16 -13 -17 -12 -4 4 13 16 21 21
21 13z m-85 -66 c-3 -5 -16 -15 -28 -21 -19 -9 -19 -8 3 10 28 23 34 26 25 11z
m1008 -7 c-7 -2 -21 -2 -30 0 -10 3 -4 5 12 5 17 0 24 -2 18 -5z m195 0 c-27
-2 -69 -2 -95 0 -27 2 -5 3 47 3 52 0 74 -1 48 -3z m282 0 c0 -5 -37 -7 -82
-5 -143 4 -157 9 -35 10 64 1 117 -1 117 -5z m-4400 -53 c17 -6 9 -7 -25 -3
-27 3 -52 7 -54 9 -8 7 54 2 79 -6z m93 3 c-7 -2 -19 -2 -25 0 -7 3 -2 5 12 5
14 0 19 -2 13 -5z m3101 -88 c31 -51 61 -97 66 -100 5 -3 27 4 50 15 54 28 51
18 -5 -14 l-45 -25 -39 58 c-21 32 -48 76 -61 99 -13 23 -28 42 -32 42 -5 0
-6 5 -3 10 3 6 8 10 9 10 2 0 29 -43 60 -95z m-2998 33 c-18 -27 -32 -90 -47
-196 -17 -132 -34 -176 -79 -212 -49 -38 -99 -55 -200 -64 -75 -8 -151 -33
-165 -56 -6 -9 -3 -9 13 -1 19 10 92 16 92 7 0 -15 -191 -189 -226 -205 -55
-26 -66 -26 -34 1 16 13 18 19 8 15 -50 -18 -120 -18 -199 -1 -46 11 -111 18
-144 18 -46 -1 -53 1 -30 7 131 34 174 41 242 43 84 3 136 20 185 61 36 31 36
31 -43 1 -36 -13 -87 -27 -114 -31 l-50 -7 54 37 c59 41 221 192 221 206 0 5
-12 9 -27 9 -62 0 -52 17 13 23 53 4 86 15 162 52 80 40 110 62 191 143 l96
95 -50 12 c-48 12 -49 12 -20 19 25 6 154 41 163 45 1 0 -4 -9 -12 -21z m2802
-85 c38 -60 93 -152 122 -205 28 -54 54 -98 56 -98 3 0 19 7 37 16 l32 15 -25
-20 c-44 -36 -53 -30 -104 69 -21 41 -52 94 -67 117 -16 23 -29 44 -29 46 0 2
-22 38 -50 80 -47 72 -55 87 -46 87 2 0 35 -48 74 -107z m-3108 41 c112 -21
135 -30 120 -49 -6 -7 -17 -12 -24 -9 -6 2 -25 -10 -41 -28 -17 -18 -22 -26
-12 -19 9 7 17 11 17 8 0 -2 -17 -17 -37 -33 -33 -24 -35 -25 -18 -4 l20 23
-27 -18 c-15 -9 -26 -21 -23 -25 3 -5 0 -12 -6 -16 -8 -4 -9 -3 -5 4 10 16 6
15 -57 -13 -75 -35 -195 -43 -292 -20 -38 9 -82 18 -97 22 -38 7 -35 21 5 28
17 3 109 19 202 35 l170 30 -120 -5 c-66 -3 -149 -12 -185 -20 l-65 -14 35 30
c50 42 114 79 163 94 58 19 178 18 277 -1z m3589 12 c-10 -9 -89 -46 -89 -41
0 6 72 44 84 45 5 0 7 -2 5 -4z m-2736 -38 c14 -18 28 -49 32 -68 l7 -35 -26
30 c-14 17 -25 33 -26 36 0 3 -16 14 -35 24 -26 15 -32 22 -23 32 18 22 46 14
71 -19z m-1995 -52 c33 -178 -1 -341 -94 -442 -27 -30 -30 -31 -10 -5 29 36
56 94 56 119 0 13 -4 12 -22 -4 -13 -11 -32 -26 -42 -34 -18 -13 -19 -13 -10
0 5 8 9 24 10 35 1 11 11 63 23 115 30 131 30 130 21 130 -4 0 -20 -39 -35
-87 -36 -116 -126 -366 -135 -376 -4 -5 -4 12 1 38 5 26 6 52 2 58 -3 6 -1 7
5 3 7 -4 12 -2 12 3 0 6 -4 11 -8 11 -5 0 -10 33 -11 73 -1 49 2 67 8 57 6 -8
13 -11 17 -7 4 3 1 13 -5 21 -29 35 35 169 123 256 31 30 56 62 56 70 0 17 9
30 20 30 4 0 12 -29 18 -64z m5481 26 c0 -11 -3 -12 -6 -4 -3 8 -34 12 -103
12 -54 0 -101 3 -103 8 -3 4 44 6 104 4 95 -3 109 -5 108 -20z m-3558 -32 c5
0 9 -4 9 -8 0 -5 -13 -9 -30 -10 -29 -1 -37 7 -23 22 4 3 13 4 21 1 7 -3 18
-5 23 -5z m3045 -101 c25 -50 44 -93 42 -95 -2 -2 -24 37 -48 86 -24 50 -47
90 -51 90 -3 0 -63 -30 -133 -66 -69 -36 -126 -63 -126 -60 0 7 243 136 257
136 7 0 33 -41 59 -91z m511 -11 c-3 -8 -6 -5 -6 6 -1 11 2 17 5 13 3 -3 4
-12 1 -19z m-4452 -13 c-16 -8 -37 -14 -45 -14 -8 0 1 7 20 14 46 18 64 17 25
0z m-575 -9 c0 -2 -8 -10 -17 -17 -16 -13 -17 -12 -4 4 13 16 21 21 21 13z
m4190 -21 c0 -2 -22 -16 -50 -30 -27 -14 -50 -23 -50 -20 0 2 21 16 48 29 53
28 52 28 52 21z m-4300 -59 c0 -2 -8 -10 -17 -17 -16 -13 -17 -12 -4 4 13 16
21 21 21 13z m5317 -33 c-3 -10 -5 -4 -5 12 0 17 2 24 5 18 2 -7 2 -21 0 -30z
m-4927 1 c46 -9 88 -18 93 -21 13 -8 -53 -72 -68 -67 -6 3 -18 -3 -26 -13 -13
-16 -12 -17 4 -4 25 19 21 8 -5 -15 -12 -10 -18 -13 -14 -6 4 6 3 12 -2 12
-15 0 -33 -26 -24 -35 4 -5 2 -5 -5 -1 -7 4 -30 -2 -51 -13 -55 -28 -151 -51
-215 -51 -69 0 -157 18 -157 32 0 7 -20 9 -57 5 l-58 -5 45 14 c25 7 129 29
232 48 103 19 195 39 205 46 16 10 15 11 -7 6 -14 -2 -63 -7 -110 -11 -47 -3
-110 -8 -140 -11 l-55 -5 38 26 c20 14 37 28 37 30 0 9 -55 -19 -100 -50 -70
-49 -78 -52 -60 -31 22 28 126 95 173 112 98 36 163 37 327 8z m4747 -6 c-3
-7 -5 -2 -5 12 0 14 2 19 5 13 2 -7 2 -19 0 -25z m-5994 -31 c-21 -29 -48 -66
-61 -82 l-22 -30 10 29 c6 16 8 31 6 34 -3 2 -1 13 4 23 7 12 6 19 -3 23 -6 3
-2 3 10 0 18 -4 22 -2 17 10 -4 11 0 14 14 11 11 -2 28 5 38 16 31 35 26 20
-13 -34z m5616 -112 c66 -157 144 -375 138 -382 -2 -2 -23 52 -47 119 -23 68
-71 190 -106 272 -35 82 -64 151 -64 154 0 20 25 -32 79 -163z m-249 144 c0
-5 -5 -7 -10 -4 -6 4 -27 -3 -47 -15 -19 -11 -38 -19 -40 -16 -6 6 67 45 85
46 6 0 12 -5 12 -11z m-5248 -102 c43 -141 24 -329 -42 -409 -14 -17 -12 -9 7
29 38 79 43 225 11 350 -13 50 -22 96 -20 102 7 22 22 -2 44 -72z m638 60 c0
-2 -19 -18 -42 -36 l-43 -32 39 35 c37 34 46 40 46 33z m4067 -165 c36 -73 63
-135 61 -137 -3 -4 -121 224 -150 290 l-9 20 16 -20 c9 -11 46 -80 82 -153z
m655 -56 c21 -54 37 -100 35 -103 -2 -2 -15 22 -27 54 -13 32 -43 104 -67 161
-23 57 -43 106 -42 110 1 11 57 -112 101 -222z m515 187 c-3 -10 -5 -4 -5 12
0 17 2 24 5 18 2 -7 2 -21 0 -30z m-757 23 c0 -2 -26 -16 -57 -31 -32 -16 -61
-30 -65 -32 -5 -2 -8 -2 -8 1 0 6 110 65 123 66 4 0 7 -2 7 -4z m-5170 -56 c0
-5 -4 -10 -10 -10 -5 0 -10 5 -10 10 0 6 5 10 10 10 6 0 10 -4 10 -10z m-329
-47 c-5 -47 -5 -48 -11 -13 -5 27 3 60 14 60 1 0 -1 -21 -3 -47z m5358 33
c-13 -11 -141 -77 -144 -74 -5 5 126 77 139 78 5 0 7 -2 5 -4z m920 -81 c0 -5
-4 -3 -9 5 -5 8 -9 22 -9 30 0 16 17 -16 18 -35z m-5654 -15 c-10 -11 -22 -20
-27 -20 -5 0 2 11 14 24 28 28 39 25 13 -4z m3361 12 c-8 -8 -19 -11 -25 -7
-16 9 -6 21 18 21 18 0 19 -2 7 -14z m-2025 -19 l68 -27 -29 -18 c-17 -10 -34
-18 -39 -18 -13 0 -83 -79 -128 -146 -67 -98 -163 -171 -263 -200 l-25 -7 25
25 c14 14 32 27 40 30 8 3 -28 3 -80 0 -94 -4 -98 -4 -198 37 -120 48 -164 57
-217 42 -21 -6 -41 -9 -43 -7 -6 6 117 126 129 126 5 0 51 -12 101 -26 113
-33 225 -31 299 5 60 29 158 108 187 151 22 33 61 59 91 60 7 0 44 -12 82 -27z
m4338 -25 c6 -18 7 -28 2 -23 -10 12 -25 55 -18 55 3 0 10 -15 16 -32z m-6003
0 c-3 -13 -17 -87 -32 -166 -14 -78 -29 -144 -33 -146 -18 -11 17 196 50 302
12 37 22 43 15 10z m5257 -23 c9 -19 13 -35 8 -35 -5 0 -14 14 -21 30 -10 24
-17 29 -34 25 -17 -5 -18 -4 -6 4 25 18 35 13 53 -24z m591 -55 c5 -20 3 -19
-8 5 -7 17 -16 41 -20 55 -5 20 -3 19 8 -5 7 -16 16 -41 20 -55z m-714 40
c-30 -16 -59 -29 -65 -29 -5 0 15 13 45 29 30 16 60 29 65 29 6 0 -15 -13 -45
-29z m-3433 -37 c-3 -10 -17 -60 -31 -111 -32 -117 -56 -163 -111 -215 -43
-42 -143 -102 -153 -93 -2 3 12 22 32 42 20 20 35 38 33 40 -2 2 -25 -19 -52
-46 -27 -28 -44 -50 -38 -50 19 0 22 -27 6 -71 -19 -56 -11 -121 21 -169 51
-77 68 -122 63 -162 -6 -42 -45 -101 -80 -119 -21 -11 -21 -11 -5 7 10 11 24
36 33 57 13 32 13 41 1 71 -7 18 -29 43 -47 56 -85 58 -122 111 -134 190 -7
50 13 125 48 174 l20 28 -21 -11 c-68 -36 -110 -182 -78 -270 20 -54 20 -57
-1 -40 -48 40 -73 161 -49 242 15 52 18 55 55 61 21 3 74 24 118 46 94 47 176
126 221 216 29 57 75 110 117 132 29 16 38 14 32 -5z m2817 11 c16 -6 12 -24
-5 -24 -6 0 -8 4 -5 9 4 5 0 12 -6 14 -7 3 -10 6 -6 6 3 1 13 -2 22 -5z
m-3757 -15 c43 -7 80 -13 82 -15 2 -2 -14 -20 -35 -41 -22 -21 -28 -26 -15
-11 46 53 8 28 -66 -43 -41 -39 -98 -82 -127 -95 -54 -25 -81 -31 -71 -14 3 6
0 10 -7 10 -7 1 3 8 22 16 25 11 31 17 21 23 -15 10 -10 14 42 30 20 7 37 17
37 22 0 13 -12 11 -35 -5 -11 -7 -43 -19 -72 -25 -28 -7 -106 -30 -174 -51
-67 -21 -116 -33 -108 -26 15 15 93 42 284 101 123 38 158 55 115 55 -20 0
-22 2 -10 10 13 8 12 10 -4 10 -12 0 -16 5 -13 14 5 12 -4 14 -46 10 -95 -9
-186 -42 -234 -87 -13 -11 -26 -18 -29 -15 -9 10 99 86 147 104 38 14 128 29
196 33 12 0 57 -4 100 -10z m4292 7 c-10 -9 -69 -36 -69 -32 0 7 52 35 64 36
5 0 7 -2 5 -4z m-1449 -10 c0 -2 -8 -10 -17 -17 -16 -13 -17 -12 -4 4 13 16
21 21 21 13z m988 -13 c5 -17 -23 -16 -37 1 -9 10 -7 13 11 12 12 0 23 -7 26
-13z m321 -138 c-1 -13 -57 107 -57 120 0 6 13 -17 28 -50 16 -33 29 -64 29
-70z m-5202 43 c59 -91 83 -169 82 -261 -1 -102 -17 -144 -18 -49 -1 105 -26
191 -82 284 -27 45 -49 85 -49 90 0 24 26 0 67 -64z m6172 7 c0 -5 -4 -3 -9 5
-5 8 -9 22 -9 30 0 16 17 -16 18 -35z m-2174 25 c3 -5 1 -10 -4 -10 -6 0 -11
5 -11 10 0 6 2 10 4 10 3 0 8 -4 11 -10z m1445 -161 c28 -79 47 -140 43 -136
-7 8 -101 257 -110 292 -12 53 21 -24 67 -156z m169 109 c29 -69 21 -71 -10
-3 -14 30 -22 55 -19 55 4 0 17 -23 29 -52z m-5039 38 c0 -2 -8 -10 -17 -17
-16 -13 -17 -12 -4 4 13 16 21 21 21 13z m3130 -30 c0 -3 -4 -8 -10 -11 -5 -3
-10 -1 -10 4 0 6 5 11 10 11 6 0 10 -2 10 -4z m2489 -46 c0 -9 -4 -8 -9 5 -5
11 -9 27 -9 35 0 9 4 8 9 -5 5 -11 9 -27 9 -35z m-2519 16 c0 -2 -8 -10 -17
-17 -16 -13 -17 -12 -4 4 13 16 21 21 21 13z m-2845 -26 c3 -5 1 -10 -4 -10
-6 0 -11 5 -11 10 0 6 2 10 4 10 3 0 8 -4 11 -10z m4980 0 c-27 -12 -43 -12
-25 0 8 5 22 9 30 9 10 0 8 -3 -5 -9z m415 -79 c25 -85 26 -117 1 -39 -25 76
-32 108 -27 108 3 0 14 -31 26 -69z m-5475 49 c3 -5 17 -10 31 -10 13 0 24 -4
24 -10 0 -5 -14 -10 -31 -10 -18 0 -28 4 -24 10 3 6 -4 14 -17 19 -16 7 -18
10 -6 10 9 1 20 -3 23 -9z m4899 -6 c3 -8 2 -12 -4 -9 -6 3 -10 10 -10 16 0
14 7 11 14 -7z m405 -104 c-1 -18 -37 78 -38 100 0 8 9 -7 19 -35 11 -27 20
-57 19 -65z m-6090 -40 c15 -170 20 -249 14 -227 -2 9 -8 15 -13 12 -4 -3 -6
3 -3 13 2 10 -3 82 -11 159 -19 166 -20 191 -7 178 5 -6 14 -66 20 -135z
m5296 64 c14 -38 25 -73 24 -79 0 -10 -40 88 -54 135 -15 50 5 12 30 -56z
m-1574 13 c-10 -9 -11 -8 -5 6 3 10 9 15 12 12 3 -3 0 -11 -7 -18z m-30 -30
c-8 -8 -11 -7 -11 4 0 9 3 19 7 23 4 4 9 2 11 -4 3 -7 -1 -17 -7 -23z m-86
-27 c-10 -11 -20 -18 -23 -15 -7 6 18 35 31 35 5 0 2 -9 -8 -20z m2365 0 c-8
-5 -22 -9 -30 -9 -10 0 -8 3 5 9 27 12 43 12 25 0z m-230 -72 c-102 -33 -193
-64 -202 -69 -13 -6 -16 -4 -15 11 1 10 5 16 9 14 4 -3 8 3 8 12 0 17 1 17 13
0 12 -17 23 -15 178 37 90 30 171 55 179 55 8 0 -68 -27 -170 -60z m-5017 45
c65 -10 20 -23 -83 -23 -151 0 -247 -33 -322 -111 -16 -16 -28 -25 -28 -20 0
18 96 94 148 118 79 37 194 52 285 36z m5564 -15 c-3 -8 -6 -5 -6 6 -1 11 2
17 5 13 3 -3 4 -12 1 -19z m-948 -48 c0 -10 -3 -8 -9 5 -12 27 -12 43 0 25 5
-8 9 -22 9 -30z m-4629 22 c0 -5 -9 -17 -20 -27 -11 -10 -20 -13 -20 -7 0 21
5 27 19 24 7 -2 10 1 6 7 -3 6 -1 11 4 11 6 0 11 -4 11 -8z m555 -43 c9 -17
15 -34 13 -39 -2 -5 -11 9 -20 30 -20 47 -15 53 7 9z m3979 -110 c3 -19 -6 0
-19 41 -14 41 -25 80 -24 85 1 16 36 -88 43 -126z m1223 94 c-3 -10 -5 -4 -5
12 0 17 2 24 5 18 2 -7 2 -21 0 -30z m-1102 -39 c9 -31 14 -58 12 -60 -2 -2
-9 15 -16 38 -7 24 -15 51 -17 61 -3 9 -3 17 0 17 2 0 12 -25 21 -56z m-4565
25 c0 8 2 12 5 9 3 -3 -9 -35 -26 -72 -32 -69 -50 -156 -31 -156 5 0 10 19 10
42 1 24 7 47 17 57 16 15 16 12 11 -44 -4 -33 -2 -85 4 -115 13 -67 69 -190
86 -190 8 0 23 -31 35 -71 38 -126 10 -248 -81 -352 -43 -48 -113 -87 -157
-87 l-28 1 27 14 c29 16 78 91 97 148 8 23 12 69 9 112 -2 41 0 68 4 62 5 -9
8 -8 9 3 0 8 5 -1 11 -20 8 -29 11 -32 20 -17 14 26 2 67 -44 143 -58 96 -85
160 -97 229 -10 52 -8 72 9 135 11 41 22 83 25 94 4 16 16 36 49 82 8 10 13 9
23 -4 9 -13 12 -14 13 -3z m3276 6 c-11 -8 -22 -12 -25 -9 -6 6 19 24 34 24 6
-1 1 -7 -9 -15z m-3655 -75 c-74 -39 -146 -73 -160 -76 l-26 -6 24 17 c27 20
271 135 286 135 6 0 -50 -32 -124 -70z m3542 63 c-7 -2 -19 -2 -25 0 -7 3 -2
5 12 5 14 0 19 -2 13 -5z m2177 -28 c0 -5 -5 -3 -10 5 -5 8 -10 20 -10 25 0 6
5 3 10 -5 5 -8 10 -19 10 -25z m177 13 c-3 -8 -6 -5 -6 6 -1 11 2 17 5 13 3
-3 4 -12 1 -19z m-259 -4 c-9 -8 -119 -36 -125 -31 -2 3 22 11 54 20 67 17 79
19 71 11z m-2742 -45 c-9 -13 -16 -19 -16 -13 0 5 5 15 12 22 9 9 9 12 -1 12
-7 0 -9 5 -5 11 4 7 10 7 16 1 7 -7 5 -18 -6 -33z m2601 5 c-3 -3 -12 -4 -19
-1 -8 3 -5 6 6 6 11 1 17 -2 13 -5z m230 -16 c-3 -8 -6 -5 -6 6 -1 11 2 17 5
13 3 -3 4 -12 1 -19z m-282 2 c-11 -5 -27 -9 -35 -9 -9 0 -8 4 5 9 11 5 27 9
35 9 9 0 8 -4 -5 -9z m-55 -14 c0 -2 -9 -6 -20 -9 -11 -3 -20 -1 -20 4 0 5 9
9 20 9 11 0 20 -2 20 -4z m-423 -28 c-3 -8 -6 -5 -6 6 -1 11 2 17 5 13 3 -3 4
-12 1 -19z m358 12 c-11 -5 -27 -9 -35 -9 -9 0 -8 4 5 9 11 5 27 9 35 9 9 0 8
-4 -5 -9z m-58 -16 c-3 -3 -12 -4 -19 -1 -8 3 -5 6 6 6 11 1 17 -2 13 -5z
m480 -36 c-3 -8 -6 -5 -6 6 -1 11 2 17 5 13 3 -3 4 -12 1 -19z m-5562 -6 c-20
-14 -18 -185 4 -299 19 -98 25 -226 10 -217 -3 1 -18 -18 -33 -44 -15 -26 -43
-58 -62 -71 -19 -13 -34 -29 -34 -36 0 -7 -8 -19 -17 -26 -17 -13 -17 -13 -3
5 14 18 14 19 -5 9 -34 -18 -95 -25 -95 -12 0 7 -8 5 -20 -6 -12 -11 -20 -13
-20 -6 0 9 -7 8 -27 -2 -32 -16 -132 -59 -181 -78 -18 -6 -44 -20 -57 -31 -29
-23 -34 -54 -8 -44 9 4 -1 -11 -23 -34 -53 -53 -85 -119 -93 -189 l-7 -56 -8
55 c-10 71 -11 146 -2 196 l8 39 -31 -29 c-17 -17 -31 -25 -31 -20 0 21 64
106 104 137 128 102 193 155 219 182 16 16 37 30 46 32 8 1 17 7 19 13 4 12
22 4 22 -11 0 -5 -15 -26 -33 -46 -66 -77 -59 -76 20 1 87 85 124 142 147 227
8 30 15 47 16 39 0 -12 3 -12 14 3 12 16 14 16 20 1 8 -22 8 -36 -2 -30 -4 2
-6 -11 -4 -29 3 -22 -5 -54 -23 -92 -14 -32 -27 -70 -27 -85 -1 -16 -5 -28
-10 -28 -5 0 -6 -4 -3 -10 3 -5 0 -10 -8 -10 -8 0 -25 -9 -38 -20 -20 -16 -21
-19 -6 -20 9 0 34 16 55 35 31 29 35 36 22 45 -12 9 -12 10 5 8 14 -2 27 10
47 47 41 74 50 115 59 270 10 179 16 205 48 232 14 11 28 19 31 17 2 -3 0 -8
-5 -12z m4802 -34 c-3 -8 -6 -5 -6 6 -1 11 2 17 5 13 3 -3 4 -12 1 -19z
m-5327 -17 c0 -5 -9 -19 -20 -32 l-21 -24 16 33 c15 31 25 41 25 23z m5857 -7
c-3 -3 -12 -4 -19 -1 -8 3 -5 6 6 6 11 1 17 -2 13 -5z m-40 -10 c-3 -3 -12 -4
-19 -1 -8 3 -5 6 6 6 11 1 17 -2 13 -5z m470 -16 c-3 -8 -6 -5 -6 6 -1 11 2
17 5 13 3 -3 4 -12 1 -19z m-510 6 c-3 -3 -12 -4 -19 -1 -8 3 -5 6 6 6 11 1
17 -2 13 -5z m150 -16 c-3 -8 -6 -5 -6 6 -1 11 2 17 5 13 3 -3 4 -12 1 -19z
m-190 6 c-3 -3 -12 -4 -19 -1 -8 3 -5 6 6 6 11 1 17 -2 13 -5z m-57 -14 c-14
-4 -34 -8 -45 -8 -16 0 -15 2 5 8 14 4 34 8 45 8 16 0 15 -2 -5 -8z m-73 -16
c-3 -3 -12 -4 -19 -1 -8 3 -5 6 6 6 11 1 17 -2 13 -5z m-50 -10 c-3 -3 -12 -4
-19 -1 -8 3 -5 6 6 6 11 1 17 -2 13 -5z m380 -16 c-3 -8 -6 -5 -6 6 -1 11 2
17 5 13 3 -3 4 -12 1 -19z m-5671 -112 c-4 -49 -48 -196 -54 -178 -2 7 -15 -4
-32 -26 -57 -79 -196 -147 -286 -140 -73 6 -121 35 -167 100 -52 73 -46 101
12 62 60 -39 132 -31 193 23 15 13 16 13 11 -6 -8 -33 21 -26 68 16 23 20 47
38 54 39 33 5 -29 -85 -81 -119 -40 -26 -44 -39 -9 -33 60 11 147 90 201 182
15 27 32 50 36 52 4 2 12 18 18 36 16 48 39 43 36 -8z m5469 -17 c-50 -14
-194 -39 -218 -38 -28 1 189 47 223 47 23 0 22 -1 -5 -9z m52 -51 c-3 -8 -6
-5 -6 6 -1 11 2 17 5 13 3 -3 4 -12 1 -19z m-390 -60 c-3 -8 -6 -5 -6 6 -1 11
2 17 5 13 3 -3 4 -12 1 -19z m760 -30 c-3 -7 -5 -2 -5 12 0 14 2 19 5 13 2 -7
2 -19 0 -25z m-5507 -146 c27 -127 -67 -262 -182 -262 -24 0 -29 3 -19 9 8 5
16 19 18 31 3 21 3 21 -24 2 -16 -10 -58 -35 -94 -55 -106 -58 -162 -136 -157
-217 1 -14 0 -59 -1 -100 l-3 -75 -21 45 c-18 37 -22 65 -23 160 -1 132 7 156
67 199 24 18 35 31 27 34 -7 3 -2 6 11 6 38 1 172 81 233 139 58 55 64 66 94
166 l17 58 23 -43 c13 -24 28 -68 34 -97z m-417 93 c-3 -9 -8 -14 -10 -11 -3
3 -2 9 2 15 9 16 15 13 8 -4z m2887 5 c0 -5 -9 -10 -19 -10 -11 0 -23 5 -26
10 -4 6 5 10 19 10 14 0 26 -4 26 -10z m45 0 c3 -5 -1 -10 -10 -10 -9 0 -13 5
-10 10 3 6 8 10 10 10 2 0 7 -4 10 -10z m40 0 c3 -6 -1 -7 -9 -4 -18 7 -21 14
-7 14 6 0 13 -4 16 -10z m2602 -22 c-3 -7 -5 -2 -5 12 0 14 2 19 5 13 2 -7 2
-19 0 -25z m-190 -10 c-3 -8 -6 -5 -6 6 -1 11 2 17 5 13 3 -3 4 -12 1 -19z
m-4658 -71 c44 -82 39 -177 -12 -230 -12 -13 -39 -42 -60 -65 -21 -23 -69 -63
-108 -88 -70 -47 -74 -51 -61 -69 14 -20 35 -16 64 12 l30 28 -21 -36 c-27
-47 -37 -125 -21 -173 6 -19 31 -62 55 -95 63 -85 77 -118 83 -186 4 -51 0
-69 -21 -110 -25 -51 -63 -93 -73 -83 -3 4 2 20 10 37 18 35 21 107 5 148 -15
40 -53 78 -134 133 -88 59 -125 120 -133 215 -3 48 -8 62 -18 58 -8 -3 -14 1
-14 10 0 19 -27 30 -34 14 -2 -7 -5 -5 -5 4 -1 9 14 39 32 65 26 38 54 61 121
100 121 69 187 136 224 227 17 40 33 92 37 115 8 50 11 48 54 -31z m-739 59
c0 -3 -4 -8 -10 -11 -5 -3 -10 -1 -10 4 0 6 5 11 10 11 6 0 10 -2 10 -4z
m5828 -123 c-16 -2 -40 -2 -55 0 -16 2 -3 4 27 4 30 0 43 -2 28 -4z m-160 -10
c-10 -2 -28 -2 -40 0 -13 2 -5 4 17 4 22 1 32 -1 23 -4z m-4669 -96 c-8 -7
-18 -21 -22 -32 -5 -13 3 -8 23 14 28 31 32 33 54 21 19 -9 31 -35 56 -114 38
-125 71 -209 83 -217 5 -4 7 -11 3 -17 -3 -5 3 -39 14 -75 19 -60 22 -64 46
-59 19 3 24 9 21 23 -3 11 -4 19 -2 19 1 0 22 -25 45 -56 34 -45 40 -58 29
-66 -11 -8 -11 -9 2 -5 16 5 79 -59 142 -146 29 -40 30 -62 2 -33 -21 21 -32
14 -37 -26 -3 -18 -8 -42 -12 -53 -5 -12 5 -6 27 18 36 38 57 47 57 25 0 -10
2 -10 8 -1 6 9 33 -4 97 -47 147 -97 227 -163 261 -215 9 -14 20 -22 25 -19
10 6 -9 -43 -24 -64 -6 -7 -7 -15 -4 -19 4 -3 12 7 19 23 12 28 29 46 36 39 9
-9 -25 -102 -80 -219 -87 -185 -99 -228 -105 -384 l-6 -133 -46 7 c-146 20
-543 201 -793 360 -288 183 -441 259 -593 291 -82 17 -230 22 -330 9 l-70 -8
19 21 c11 12 26 21 34 21 8 0 32 15 52 33 53 45 106 76 118 68 5 -3 13 -21 17
-38 5 -27 9 -31 20 -20 7 6 22 20 34 29 11 10 21 27 21 39 0 30 41 99 59 100
9 1 30 2 46 3 17 0 35 4 41 8 7 5 15 1 18 -9 6 -15 8 -15 16 -3 8 12 10 12 16
-3 3 -9 12 -17 20 -17 22 0 17 -15 -22 -66 l-36 -47 68 6 c128 12 222 81 264
194 23 62 25 141 5 197 -8 22 -11 44 -8 49 3 6 1 7 -4 4 -6 -4 -14 0 -17 9 -3
8 -2 12 4 9 16 -10 11 35 -5 52 -12 12 -13 18 -4 29 10 12 9 13 -4 8 -14 -5
-15 -2 -6 24 6 16 19 32 31 35 11 3 17 10 13 16 -3 6 -11 9 -16 6 -5 -4 -4 5
3 19 6 14 16 26 22 26 6 0 4 5 -4 10 -13 9 -13 12 0 23 9 6 14 21 12 32 -4 16
-2 17 10 7 8 -6 19 -8 23 -4 5 4 5 -1 2 -10 -3 -10 1 -24 9 -33 9 -8 13 -15 9
-15 -3 0 -3 -5 0 -10 4 -6 12 -4 21 5 9 8 13 19 9 25 -3 6 1 7 9 4 9 -3 24 -3
33 0 15 6 15 8 3 16 -8 5 -11 13 -6 17 4 4 14 0 21 -11 8 -10 19 -15 25 -11 7
4 0 17 -19 36 -32 30 -32 33 -35 147 -1 45 0 47 29 50 38 4 55 20 35 32 -13 8
-12 10 3 10 9 0 17 4 17 9 0 16 30 41 48 41 15 -1 15 -2 1 -13z m-1039 -68
c-54 -10 -117 -25 -145 -34 l-20 -7 20 13 c11 7 26 18 33 25 8 8 39 13 85 12
69 -1 70 -1 27 -9z m5833 -16 c-7 -2 -21 -2 -30 0 -10 3 -4 5 12 5 17 0 24 -2
18 -5z m-280 -10 c-13 -2 -33 -2 -45 0 -13 2 -3 4 22 4 25 0 35 -2 23 -4z m64
1 c-3 -3 -12 -4 -19 -1 -8 3 -5 6 6 6 11 1 17 -2 13 -5z m-5402 -151 c-44 -49
-59 -92 -60 -173 0 -86 15 -124 75 -193 l39 -44 -51 13 c-52 14 -126 67 -155
110 -37 57 -8 192 54 250 25 24 97 63 116 64 4 0 -4 -12 -18 -27z m-135 13 c0
-2 -8 -10 -17 -17 -16 -13 -17 -12 -4 4 13 16 21 21 21 13z m-40 -56 c-6 -11
-13 -20 -16 -20 -2 0 0 9 6 20 6 11 13 20 16 20 2 0 0 -9 -6 -20z m5553 3 c-7
-2 -19 -2 -25 0 -7 3 -2 5 12 5 14 0 19 -2 13 -5z m145 0 c-21 -2 -57 -2 -80
0 -24 2 -7 4 37 4 44 0 63 -2 43 -4z m135 0 c-18 -2 -48 -2 -65 0 -18 2 -4 4
32 4 36 0 50 -2 33 -4z m110 0 c-7 -2 -19 -2 -25 0 -7 3 -2 5 12 5 14 0 19 -2
13 -5z m-5258 -135 c-9 -6 -19 -7 -22 -4 -4 3 -1 6 6 6 7 0 9 4 6 10 -4 6 1 7
11 3 15 -6 15 -7 -1 -15z m-517 -45 c1 -24 0 -25 -9 -10 -5 9 -7 22 -4 27 9
15 10 13 13 -17z m-408 -19 c6 -14 14 -23 18 -20 4 2 8 -4 8 -15 0 -29 -10
-23 -29 16 -18 38 -20 45 -12 45 3 0 10 -12 15 -26z m5803 -161 c-7 -2 -21 -2
-30 0 -10 3 -4 5 12 5 17 0 24 -2 18 -5z m-3135 -82 c9 -5 -1 -10 -30 -14 -50
-7 -61 -2 -27 12 30 12 41 13 57 2z m-2844 -27 c29 -16 56 -24 71 -22 13 3 26
1 28 -5 2 -6 17 -10 35 -9 18 0 32 -4 32 -9 0 -5 4 -9 10 -9 5 0 7 7 3 16 -4
12 -2 15 8 12 8 -3 12 -13 11 -23 -3 -16 -1 -17 12 -6 14 12 16 11 16 -5 0
-16 2 -16 10 -4 5 8 12 12 15 8 10 -10 -41 -39 -87 -50 -87 -19 -162 12 -198
82 -30 60 -30 60 34 24z m6059 -111 c-7 -2 -19 -2 -25 0 -7 3 -2 5 12 5 14 0
19 -2 13 -5z m60 -10 c-7 -2 -19 -2 -25 0 -7 3 -2 5 12 5 14 0 19 -2 13 -5z
m-686 -9 c-3 -3 -12 -4 -19 -1 -8 3 -5 6 6 6 11 1 17 -2 13 -5z m756 -1 c-7
-2 -19 -2 -25 0 -7 3 -2 5 12 5 14 0 19 -2 13 -5z m-5548 -33 c3 -5 1 -10 -4
-10 -6 0 -11 5 -11 10 0 6 2 10 4 10 3 0 8 -4 11 -10z m-171 -96 c3 -8 2 -12
-4 -9 -6 3 -10 10 -10 16 0 14 7 11 14 -7z m123 10 c-3 -3 -12 -4 -19 -1 -8 3
-5 6 6 6 11 1 17 -2 13 -5z m5426 -41 c-7 -2 -19 -2 -25 0 -7 3 -2 5 12 5 14
0 19 -2 13 -5z m44 -9 c-3 -3 -12 -4 -19 -1 -8 3 -5 6 6 6 11 1 17 -2 13 -5z
m-214 -121 c-7 -2 -19 -2 -25 0 -7 3 -2 5 12 5 14 0 19 -2 13 -5z m-6468
-1143 c151 -388 223 -565 245 -603 13 -21 17 -37 11 -37 -18 0 -106 47 -117
62 -6 7 -27 60 -48 118 -22 58 -46 123 -56 145 -9 22 -25 65 -35 95 -9 30 -35
92 -56 138 -36 75 -42 82 -69 82 -28 0 -29 -2 -20 -26 13 -33 13 -120 -1 -164
-17 -58 -49 -174 -49 -182 0 -5 42 -8 93 -8 75 -1 96 -4 115 -19 12 -11 22
-22 22 -25 0 -3 -75 -6 -166 -6 -129 0 -165 3 -162 13 34 89 40 120 27 128
-10 6 -10 9 -2 9 7 0 17 10 24 21 10 20 9 21 -10 16 -18 -4 -20 -3 -11 8 6 8
18 11 26 8 10 -3 14 2 14 19 0 13 4 28 10 34 10 10 50 120 50 138 0 6 -5 4
-10 -4 -9 -13 -11 -13 -20 0 -13 20 -12 39 1 20 8 -12 9 -9 5 12 -6 27 14 54
22 30 2 -7 8 -10 12 -7 5 3 6 13 3 22 -4 11 -3 14 5 9 7 -4 12 -1 13 6 1 7 5
2 9 -12 7 -21 8 -18 10 20 2 25 4 56 5 70 1 14 -1 34 -5 45 -9 24 7 73 19 59
5 -5 48 -110 96 -234z m1293 156 c23 -34 42 -65 42 -69 0 -3 -20 1 -45 10
l-45 15 -47 -40 c-27 -22 -57 -50 -68 -62 l-20 -23 23 7 c16 6 22 3 22 -8 0
-19 16 -21 27 -3 4 6 19 21 33 31 14 11 -19 -22 -73 -73 -53 -51 -94 -98 -91
-103 7 -11 215 -5 247 8 15 5 17 -2 17 -63 0 -38 -3 -73 -7 -76 -3 -4 -19 8
-34 27 -25 28 -35 32 -66 30 -21 -2 -83 -3 -137 -3 l-100 -1 36 -27 c20 -16
69 -63 108 -105 80 -87 182 -168 211 -168 25 0 24 -4 -7 -48 -15 -20 -24 -30
-21 -21 4 11 -3 15 -27 15 -23 0 -50 13 -91 45 -74 56 -203 201 -233 262 -20
41 -28 48 -61 53 -21 3 -44 10 -51 14 -22 14 124 184 256 301 65 57 125 112
133 121 9 9 18 17 21 17 3 0 24 -28 48 -63z m3729 -3 c24 -37 41 -68 40 -70
-2 -1 -22 4 -44 13 -39 16 -41 15 -69 -7 -35 -30 -116 -108 -88 -86 11 10 28
17 36 17 9 0 19 8 22 17 6 15 8 15 16 3 9 -14 11 -12 14 19 0 8 7 16 15 19 10
3 12 0 8 -12 -4 -9 -3 -14 2 -11 5 3 12 1 16 -5 3 -5 2 -10 -3 -10 -14 0 -212
-190 -212 -202 0 -10 210 -7 250 3 12 3 16 -10 18 -68 2 -40 0 -73 -3 -73 -4
0 -18 14 -32 30 l-25 30 -129 0 c-71 0 -129 -4 -129 -9 0 -18 260 -259 299
-277 22 -11 41 -22 41 -25 0 -3 -15 -14 -33 -24 -48 -25 -75 -15 -163 62 -80
70 -126 124 -184 215 -31 50 -39 57 -77 63 -26 4 -43 12 -43 19 0 19 71 122
122 178 43 46 278 257 288 258 3 0 24 -30 47 -67z m-3024 0 c4 -2 -1 -16 -12
-31 -10 -15 -58 -97 -105 -182 -58 -103 -85 -162 -82 -175 5 -18 91 -180 175
-327 l33 -58 -34 7 c-68 13 -74 19 -148 155 -41 73 -82 146 -93 162 l-20 28
-17 -23 c-14 -17 -16 -29 -8 -50 8 -22 3 -41 -23 -101 -17 -40 -46 -108 -64
-152 l-33 -78 -24 41 c-22 38 -25 40 -58 35 -19 -4 -43 -11 -52 -16 -25 -12
-23 -6 15 54 17 29 66 113 107 188 74 132 76 135 108 133 39 -2 41 13 9 65
-13 20 -49 87 -81 147 -65 123 -81 145 -107 145 -10 0 -30 5 -46 11 -27 11
-27 12 47 40 41 16 78 29 83 29 4 0 32 -53 62 -117 30 -65 61 -131 69 -148
l14 -30 60 125 c33 69 63 137 67 152 l7 26 71 -25 c40 -14 75 -27 80 -30z
m235 30 c174 -113 412 -294 412 -313 0 -6 -26 -10 -58 -10 -54 0 -61 3 -93 36
-45 47 -235 174 -260 174 -23 0 -23 -1 -2 -48 11 -25 18 -78 22 -164 l6 -127
75 58 c59 46 85 59 123 64 57 8 62 -6 15 -43 -44 -35 -58 -50 -58 -62 0 -6 6
-5 16 3 13 10 17 10 24 -1 5 -7 16 -10 26 -6 18 6 18 6 1 -8 -10 -8 -29 -13
-43 -11 -13 1 -24 -2 -24 -6 0 -5 8 -9 17 -9 9 0 -10 -20 -43 -44 -58 -44 -74
-48 -74 -20 0 11 -4 12 -19 2 -14 -8 -16 -14 -7 -24 6 -6 15 -9 20 -6 5 3 6 0
2 -7 -5 -7 -13 -8 -23 -2 -28 15 -71 -7 -44 -23 4 -3 11 -49 13 -103 3 -54 9
-106 13 -117 7 -16 5 -17 -16 -11 -13 4 -37 17 -52 27 l-28 20 1 112 c4 279
-2 561 -11 580 -6 12 -27 35 -47 53 l-36 31 45 10 c65 14 77 14 107 -5z m1462
-165 c187 -252 177 -232 151 -286 -22 -45 -169 -246 -249 -339 -45 -54 -72
-70 -51 -31 9 17 9 20 -3 16 -8 -4 -14 1 -15 12 -1 13 5 16 25 14 15 -2 19 -1
10 2 -10 3 -18 10 -18 16 0 5 7 8 15 4 9 -3 15 0 15 8 0 11 -10 13 -39 9 -36
-5 -43 -2 -71 28 -52 57 -178 224 -197 262 -16 33 -22 37 -60 37 -24 0 -43 3
-43 6 0 12 144 211 263 362 46 58 51 62 90 62 l42 0 135 -182z m437 146 c87
-55 232 -167 297 -228 57 -53 59 -56 44 -78 -8 -13 -51 -54 -96 -93 -44 -39
-78 -76 -76 -83 7 -25 158 -226 198 -264 l38 -38 -55 0 c-53 0 -57 2 -96 46
-22 25 -67 85 -100 133 -33 48 -67 93 -76 101 -16 14 -34 10 -113 -21 -44 -18
-52 -5 -52 87 0 95 -9 137 -27 130 -17 -7 -29 22 -15 36 7 7 5 17 -9 31 -21
23 -25 47 -8 47 6 0 9 -7 5 -15 -6 -18 -5 -18 28 -5 29 11 35 31 9 28 -34 -2
-53 2 -53 13 0 5 4 8 9 5 5 -3 15 1 22 10 7 8 8 14 3 13 -23 -4 -31 3 -31 25
0 22 1 23 14 10 8 -8 19 -11 25 -8 7 4 8 2 4 -4 -4 -7 -3 -12 3 -12 19 0 24
49 8 74 -20 29 -72 68 -81 59 -3 -3 -6 -1 -6 5 0 11 63 29 108 31 13 1 48 -15
79 -35z m-3607 -5 c-9 -29 -11 -185 -10 -542 l0 -138 138 5 c75 2 148 8 161
12 22 6 24 5 18 -17 -4 -13 -7 -51 -7 -83 0 -58 0 -59 -20 -41 -11 10 -22 26
-25 36 -5 16 -17 19 -76 19 -38 0 -79 6 -90 13 -17 10 -23 10 -26 0 -7 -18
-113 -17 -140 2 -20 14 -21 21 -21 339 -1 215 -4 332 -12 345 -6 12 -24 28
-41 37 -41 21 -27 32 46 37 33 2 72 4 87 5 25 2 26 0 18 -29z m2374 9 c-4 -13
-9 -170 -11 -350 l-4 -328 23 0 c13 0 65 -2 116 -5 51 -3 112 -1 135 5 23 5
42 8 43 7 1 -1 -1 -36 -4 -77 l-7 -75 -24 33 c-24 31 -28 32 -94 32 -37 0 -77
5 -87 10 -13 7 -21 7 -25 0 -9 -14 -118 -12 -138 3 -13 9 -17 34 -20 113 -2
56 -7 106 -11 113 -4 6 -2 11 4 11 16 0 8 45 -7 46 -7 1 -17 2 -23 3 -5 0 -10
6 -10 12 0 5 6 7 13 3 8 -5 7 -2 -2 9 -8 10 -11 21 -7 25 7 7 11 8 37 11 8 1
10 48 6 169 l-6 167 -42 37 -43 37 69 4 c39 1 83 4 99 5 25 2 28 0 20 -20z
m-3033 -46 c-6 -2 -11 -11 -11 -20 0 -15 2 -15 10 -2 5 8 10 10 10 4 0 -17
-27 -37 -34 -26 -3 6 2 31 12 57 16 45 17 46 20 19 2 -16 -1 -30 -7 -32z
m2909 -48 c0 -8 -5 -12 -10 -9 -6 4 -8 11 -5 16 9 14 15 11 15 -7z m-30 -54
c-8 -34 -8 -33 -9 15 0 34 3 45 9 35 4 -9 5 -31 0 -50z m37 -9 c0 -29 -4 -38
-14 -34 -16 6 -17 27 -1 53 7 11 13 20 14 20 0 0 1 -18 1 -39z m-2369 -72 c-1
-20 -4 -26 -9 -17 -12 18 -11 48 0 48 5 0 9 -14 9 -31z m2367 -311 c1 -24 0
-37 -2 -30 -3 6 -10 9 -15 6 -8 -5 -9 5 -5 30 3 21 2 34 -3 31 -6 -3 -7 1 -4
10 11 27 27 0 29 -47z m-2400 -38 c3 -5 1 -10 -4 -10 -6 0 -11 5 -11 10 0 6 2
10 4 10 3 0 8 -4 11 -10z m3723 -2 c7 -7 12 -40 12 -77 1 -37 5 -85 9 -108 5
-24 6 -43 4 -43 -2 0 -22 9 -43 20 l-40 20 0 100 c0 98 1 100 23 100 13 0 28
-5 35 -12z m-3725 -43 c-7 -21 -13 -19 -13 6 0 11 4 18 10 14 5 -3 7 -12 3
-20z m1770 0 c-3 -8 -11 -15 -19 -15 -17 0 -18 7 -1 24 15 17 28 11 20 -9z
m-2408 -65 c-3 -14 -8 -51 -12 -82 -3 -32 -9 -58 -12 -58 -3 1 -22 14 -41 30
-38 33 -38 30 8 147 l17 42 23 -27 c15 -18 20 -35 17 -52z m-88 -10 c-1 -12
-7 -18 -14 -16 -7 3 -15 1 -18 -4 -4 -6 0 -10 8 -10 24 0 8 -38 -18 -44 -13
-3 -30 -9 -39 -12 -20 -8 -21 6 -1 32 11 14 17 16 23 7 5 -8 13 -9 22 -3 10 7
11 10 3 10 -18 0 -16 16 4 40 22 25 32 25 30 0z m4363 10 c0 -5 -4 -10 -10
-10 -5 0 -10 5 -10 10 0 6 5 10 10 10 6 0 10 -4 10 -10z m-1263 -95 c-31 -30
-42 -32 -25 -6 7 11 15 18 19 15 4 -2 10 3 13 12 4 9 10 14 13 10 4 -4 -5 -18
-20 -31z m-2377 8 c0 -5 -7 -17 -15 -27 -15 -20 -20 -10 -9 18 6 16 24 22 24
9z m1727 -35 c-3 -8 -6 -5 -6 6 -1 11 2 17 5 13 3 -3 4 -12 1 -19z"/>
<path d="M8876 9981 c-11 -12 -14 -21 -7 -26 6 -3 11 -1 11 5 0 8 10 10 28 6
18 -4 22 -3 13 3 -7 5 -17 14 -20 20 -5 8 -13 6 -25 -8z"/>
<path d="M9053 9983 c0 -12 11 -17 30 -14 4 0 7 -6 7 -14 0 -8 4 -15 8 -15 4
0 8 9 8 19 0 11 -3 19 -6 19 -18 -1 -23 4 -11 11 10 7 7 9 -11 8 -13 -1 -25
-8 -25 -14z"/>
<path d="M8550 9960 c0 -5 5 -10 11 -10 5 0 7 5 4 10 -3 6 -8 10 -11 10 -2 0
-4 -4 -4 -10z"/>
<path d="M9055 9909 c-4 -5 -1 -8 6 -7 6 2 14 -3 16 -9 3 -7 -2 -13 -11 -13
-9 0 -16 -8 -16 -20 0 -11 5 -20 10 -20 6 0 10 7 10 15 0 18 17 20 23 3 2 -8
8 -9 13 -4 5 5 4 11 -3 13 -7 3 -13 13 -13 23 0 20 -26 34 -35 19z"/>
<path d="M8766 9664 c-5 -13 13 -34 29 -34 5 0 3 5 -5 10 -13 8 -13 10 2 10 9
0 18 6 21 13 3 9 7 9 17 0 13 -12 40 -7 40 8 0 13 -99 6 -104 -7z"/>
<path d="M9095 9640 c3 -5 8 -10 11 -10 2 0 4 5 4 10 0 6 -5 10 -11 10 -5 0
-7 -4 -4 -10z"/>
<path d="M9250 9900 c0 -5 7 -7 15 -4 8 4 15 8 15 10 0 2 -7 4 -15 4 -8 0 -15
-4 -15 -10z"/>
<path d="M9970 9653 c0 -11 6 -23 14 -26 17 -7 15 18 -2 35 -9 9 -12 7 -12 -9z"/>
<path d="M9471 9563 c-9 -16 -12 -16 -21 -3 -11 17 -12 3 -2 -21 6 -13 11 -13
32 -2 14 7 19 13 11 13 -11 0 -11 3 -1 15 8 10 9 15 2 15 -6 0 -16 -8 -21 -17z"/>
<path d="M9470 9510 c0 -5 4 -10 9 -10 6 0 13 5 16 10 3 6 -1 10 -9 10 -9 0
-16 -4 -16 -10z"/>
<path d="M9447 9491 c3 -11 11 -22 19 -25 11 -4 11 0 2 19 -13 30 -28 33 -21
6z"/>
<path d="M9440 9439 c0 -5 5 -7 10 -4 6 3 10 8 10 11 0 2 -4 4 -10 4 -5 0 -10
-5 -10 -11z"/>
<path d="M9630 9329 c0 -18 2 -19 15 -9 12 10 18 10 30 0 12 -10 15 -9 15 4 0
10 -4 14 -10 11 -5 -3 -10 -1 -10 4 0 6 -9 11 -20 11 -14 0 -20 -7 -20 -21z"/>
<path d="M8566 9727 c3 -10 9 -15 12 -12 3 3 0 11 -7 18 -10 9 -11 8 -5 -6z"/>
<path d="M8535 9706 c-18 -13 -18 -14 3 -25 12 -6 19 -17 16 -25 -3 -7 2 -16
10 -19 20 -8 20 -3 1 34 -9 16 -13 34 -10 39 8 14 2 12 -20 -4z"/>
<path d="M5939 8083 c-13 -16 -12 -17 4 -4 9 7 17 15 17 17 0 8 -8 3 -21 -13z"/>
<path d="M5500 7970 c-11 -22 -18 -40 -15 -40 2 0 14 18 25 40 11 22 18 40 15
40 -2 0 -14 -18 -25 -40z"/>
<path d="M5425 7849 c-4 -6 -5 -12 -2 -15 2 -3 7 2 10 11 7 17 1 20 -8 4z"/>
<path d="M5322 7810 c0 -14 2 -19 5 -12 2 6 2 18 0 25 -3 6 -5 1 -5 -13z"/>
<path d="M5376 7748 c3 -4 1 -8 -4 -8 -10 0 -25 -30 -19 -36 2 -2 13 9 24 24
15 21 17 29 8 29 -8 0 -12 -4 -9 -9z"/>
<path d="M4370 7725 l-25 -14 33 -1 c17 0 32 5 32 11 0 6 8 8 19 4 11 -3 22
-1 26 5 9 15 -56 12 -85 -5z"/>
<path d="M4480 7731 c8 -6 26 -11 41 -11 14 0 29 -4 35 -9 10 -10 61 6 50 16
-3 3 -36 8 -74 10 -48 3 -63 1 -52 -6z"/>
<path d="M4030 7695 c-7 -8 -18 -15 -24 -15 -6 0 -16 -11 -23 -25 -6 -14 -7
-23 -3 -20 4 3 6 -14 4 -37 -4 -42 -4 -42 31 31 35 72 40 97 15 66z"/>
<path d="M4315 7700 c-3 -6 1 -7 9 -4 18 7 21 14 7 14 -6 0 -13 -4 -16 -10z"/>
<path d="M4100 7603 c-36 -39 -60 -79 -60 -100 0 -15 2 -15 14 -3 14 16 80
130 74 130 -2 0 -14 -12 -28 -27z"/>
<path d="M4030 7545 c-7 -9 -10 -18 -7 -21 3 -3 10 4 17 15 13 25 8 27 -10 6z"/>
<path d="M4130 7458 c-18 -30 -24 -51 -21 -70 0 -5 -4 -8 -10 -8 -5 0 -7 -4
-4 -10 3 -5 2 -10 -3 -10 -14 0 -28 -42 -24 -69 3 -22 6 -20 26 20 13 24 29
62 36 84 7 22 16 45 20 50 7 10 10 45 3 45 -2 0 -12 -15 -23 -32z m11 -11
c-10 -9 -11 -8 -5 6 3 10 9 15 12 12 3 -3 0 -11 -7 -18z"/>
<path d="M3707 6880 c-3 -12 0 -20 7 -20 18 0 25 10 19 26 -7 20 -20 17 -26
-6z"/>
<path d="M6140 7723 c-14 -16 -13 -17 1 -5 18 14 103 6 94 -8 -7 -11 52 -23
66 -14 7 4 9 3 6 -3 -4 -6 10 -17 31 -26 20 -9 48 -24 61 -34 24 -17 24 -17
12 5 -10 18 -9 21 4 16 8 -4 16 -12 16 -20 2 -24 4 -27 38 -96 23 -46 35 -89
41 -140 l8 -73 0 65 c0 83 3 95 12 45 l7 -40 2 47 c4 153 -136 288 -309 296
-65 3 -78 1 -90 -15z"/>
<path d="M6103 7508 c-4 -7 -8 -22 -10 -33 -1 -11 1 -14 3 -8 3 7 5 15 4 19
-1 3 7 12 17 20 10 7 13 14 6 14 -6 0 -15 -6 -20 -12z"/>
<path d="M6355 7491 c-3 -5 -1 -12 5 -16 5 -3 10 0 10 7 0 7 8 -2 18 -19 9
-18 26 -42 37 -55 11 -13 26 -34 32 -48 12 -25 12 -25 6 5 -9 48 -34 94 -61
115 -27 22 -38 25 -47 11z"/>
<path d="M6661 7464 c0 -11 3 -14 6 -6 3 7 2 16 -1 19 -3 4 -6 -2 -5 -13z"/>
<path d="M6050 7325 c0 -8 2 -15 4 -15 2 0 6 7 10 15 3 8 1 15 -4 15 -6 0 -10
-7 -10 -15z"/>
<path d="M6170 6615 c-106 -30 -223 -86 -383 -183 l-108 -65 42 -24 c23 -13
45 -20 48 -17 3 4 0 9 -6 11 -7 3 -13 9 -13 14 0 6 5 7 12 3 7 -5 9 -2 5 9
-11 28 32 66 126 111 163 78 270 101 347 75 l32 -12 -78 -41 c-44 -23 -98 -54
-122 -69 -23 -15 -47 -25 -52 -22 -4 3 -24 -4 -42 -15 -36 -21 -83 -17 -74 6
3 8 -4 19 -15 25 -16 8 -25 7 -38 -5 -10 -9 -22 -16 -27 -16 -22 0 -44 -40
-38 -70 6 -26 13 -32 58 -45 65 -18 109 -21 167 -11 37 6 56 3 107 -17 34 -14
62 -24 62 -22 0 2 -23 16 -51 31 l-50 28 23 17 c37 28 155 72 174 65 16 -6 17
-42 2 -130 -5 -28 19 -31 26 -3 4 20 12 24 38 23 24 -1 32 -5 30 -16 -1 -8 37
26 86 75 48 50 88 92 88 95 0 3 5 22 11 42 6 21 10 44 9 52 -5 36 -112 88
-208 101 -48 6 -59 0 -36 -23 9 -9 -1 -12 -49 -10 -45 2 -59 6 -56 15 3 7 9
13 14 13 5 0 9 5 9 10 0 12 -13 12 -70 -5z m27 -31 c-3 -3 -12 -4 -19 -1 -8 3
-5 6 6 6 11 1 17 -2 13 -5z m127 -126 c9 -12 16 -25 16 -28 0 -3 -21 -6 -46
-6 -35 -1 -80 -18 -191 -73 -79 -39 -156 -71 -171 -71 -23 0 -20 4 23 26 28
15 77 46 111 70 75 53 180 104 216 104 16 0 33 -9 42 -22z m-454 -48 c0 -5 -5
-10 -11 -10 -5 0 -7 5 -4 10 3 6 8 10 11 10 2 0 4 -4 4 -10z"/>
<path d="M6048 6434 c-16 -8 -28 -17 -28 -19 0 -10 16 -4 40 15 30 23 25 25
-12 4z"/>
<path d="M5525 6060 c3 -5 11 -10 16 -10 6 0 7 5 4 10 -3 6 -11 10 -16 10 -6
0 -7 -4 -4 -10z"/>
<path d="M5630 6054 c0 -9 5 -14 12 -12 18 6 21 28 4 28 -9 0 -16 -7 -16 -16z"/>
<path d="M5530 5900 c0 -5 5 -10 10 -10 6 0 10 5 10 10 0 6 -4 10 -10 10 -5 0
-10 -4 -10 -10z"/>
<path d="M5555 5813 c4 -10 9 -29 10 -43 3 -36 4 -37 16 -17 12 20 -5 77 -23
77 -6 0 -7 -8 -3 -17z"/>
<path d="M5440 5715 c7 -8 26 -21 44 -30 l31 -15 -33 30 c-34 31 -65 42 -42
15z"/>
<path d="M5580 5700 c0 -5 5 -10 11 -10 5 0 7 5 4 10 -3 6 -8 10 -11 10 -2 0
-4 -4 -4 -10z"/>
<path d="M5570 5590 c0 -5 5 -10 11 -10 5 0 7 5 4 10 -3 6 -8 10 -11 10 -2 0
-4 -4 -4 -10z"/>
<path d="M5595 5549 c-11 -16 -1 -19 13 -3 7 8 8 14 3 14 -5 0 -13 -5 -16 -11z"/>
<path d="M5665 5480 c3 -5 10 -10 16 -10 5 0 9 5 9 10 0 6 -7 10 -16 10 -8 0
-12 -4 -9 -10z"/>
<path d="M5266 5384 c-5 -14 -4 -15 9 -4 17 14 19 20 6 20 -5 0 -12 -7 -15
-16z"/>
<path d="M5520 5360 c6 -11 12 -20 14 -20 2 0 2 9 -1 20 -3 11 -9 20 -15 20
-5 0 -4 -9 2 -20z"/>
<path d="M5182 5308 c-14 -14 -16 -28 -3 -28 5 0 11 9 14 20 6 23 5 24 -11 8z"/>
<path d="M5640 5191 c0 -5 5 -13 10 -16 6 -3 10 -2 10 4 0 5 -4 13 -10 16 -5
3 -10 2 -10 -4z"/>
<path d="M5950 5181 c0 -6 4 -13 10 -16 6 -3 7 1 4 9 -7 18 -14 21 -14 7z"/>
<path d="M5451 5046 c-9 -10 -9 -16 -1 -21 17 -10 37 12 24 25 -8 8 -15 6 -23
-4z"/>
<path d="M6100 4932 c0 -5 7 -17 15 -28 15 -19 20 -8 9 20 -6 17 -24 22 -24 8z"/>
<path d="M5701 7634 c-35 -8 -82 -19 -105 -25 -36 -10 -38 -12 -20 -19 15 -6
47 -1 95 14 41 13 90 28 109 33 54 17 0 14 -79 -3z"/>
<path d="M5880 7584 c-55 -43 -61 -50 -35 -36 23 12 93 71 85 71 -3 1 -25 -15
-50 -35z"/>
<path d="M5490 7564 c-14 -8 -17 -13 -7 -10 10 3 25 6 33 6 8 0 14 5 14 10 0
14 -10 12 -40 -6z"/>
<path d="M4689 7243 c-13 -16 -12 -17 4 -4 16 13 21 21 13 21 -2 0 -10 -8 -17
-17z"/>
<path d="M5630 7196 c0 -8 -5 -18 -12 -22 -8 -5 -9 -2 -5 9 9 25 1 21 -21 -11
-19 -26 -19 -28 -2 -28 10 0 17 3 14 7 -2 4 3 9 10 12 19 7 41 47 26 47 -5 0
-10 -6 -10 -14z"/>
<path d="M4333 7190 c0 -30 2 -43 4 -27 2 15 2 39 0 55 -2 15 -4 2 -4 -28z"/>
<path d="M4332 7110 c0 -14 2 -19 5 -12 2 6 2 18 0 25 -3 6 -5 1 -5 -13z"/>
<path d="M4187 7033 c-4 -3 -7 -13 -7 -22 1 -13 3 -13 11 2 11 19 8 33 -4 20z"/>
<path d="M4167 6983 c-4 -3 -7 -13 -7 -22 1 -13 3 -13 11 2 11 19 8 33 -4 20z"/>
<path d="M5240 6579 c-18 -15 -20 -19 -7 -15 10 3 22 6 27 6 4 0 10 7 14 15 8
21 -4 18 -34 -6z"/>
<path d="M4290 5985 c0 -8 2 -15 4 -15 2 0 6 7 10 15 3 8 1 15 -4 15 -6 0 -10
-7 -10 -15z"/>
<path d="M3773 5505 c0 -8 4 -12 9 -9 5 3 6 10 3 15 -9 13 -12 11 -12 -6z"/>
<path d="M4483 5313 c-3 -10 -8 -21 -10 -25 -2 -5 0 -8 5 -8 5 0 14 11 20 25
7 16 8 25 1 25 -5 0 -12 -8 -16 -17z"/>
<path d="M4880 5016 c8 -8 31 -17 50 -20 l35 -7 -35 20 c-43 25 -72 29 -50 7z"/>
<path d="M4708 4956 c-2 -21 0 -34 7 -33 5 1 10 -9 10 -23 0 -14 4 -31 9 -39
6 -9 5 -12 -1 -8 -20 12 -21 -41 -2 -62 10 -11 15 -22 10 -25 -10 -7 0 -61 17
-93 7 -12 12 -29 12 -39 0 -13 -3 -14 -15 -4 -19 16 -19 12 0 -36 31 -76 58
-124 72 -124 11 0 11 4 1 23 -7 12 -12 51 -13 87 0 54 -4 70 -23 90 -23 25
-30 46 -10 34 8 -5 9 -2 4 12 -4 10 -16 63 -27 117 -11 53 -24 108 -29 121 -5
13 -6 27 -3 30 4 3 2 6 -4 6 -6 0 -13 -15 -15 -34z"/>
<path d="M4650 4586 c0 -9 63 -137 66 -134 6 6 -50 138 -58 138 -4 0 -8 -2 -8
-4z"/>
<path d="M5470 4465 c0 -8 4 -15 9 -15 4 0 26 -14 47 -31 50 -40 74 -53 74
-40 0 6 -16 18 -37 27 -20 10 -43 30 -52 46 -17 30 -41 38 -41 13z"/>
<path d="M4785 4420 c-4 -6 3 -25 14 -44 12 -18 23 -48 25 -66 3 -31 26 -68
26 -42 0 7 14 10 36 8 28 -2 38 2 41 15 3 12 20 21 47 27 l41 9 -30 7 c-16 4
-37 10 -45 14 -8 3 -19 7 -25 8 -5 1 -14 3 -20 4 -5 2 -15 4 -22 4 -6 1 -25
16 -42 34 -34 35 -37 37 -46 22z"/>
<path d="M5655 4360 c-3 -5 -1 -10 4 -10 6 0 11 5 11 10 0 6 -2 10 -4 10 -3 0
-8 -4 -11 -10z"/>
<path d="M4856 4223 c7 -35 -11 -83 -31 -83 -8 0 -15 -4 -15 -10 0 -16 26 -12
43 8 22 24 28 112 7 112 -5 0 -7 -12 -4 -27z"/>
<path d="M5645 4097 c-38 -38 -58 -61 -44 -49 14 12 30 22 36 22 6 0 16 7 23
15 7 9 15 13 18 11 10 -11 43 16 38 30 -3 9 -1 12 4 9 6 -3 10 3 10 14 0 12
-3 21 -7 20 -5 -1 -39 -33 -78 -72z"/>
<path d="M4707 4093 c-14 -14 -6 -19 23 -15 16 2 27 8 24 13 -6 11 -38 12 -47
2z"/>
<path d="M4655 4045 c-26 -21 -28 -24 -10 -25 11 0 26 9 33 21 19 30 11 32
-23 4z"/>
<path d="M5060 3806 c0 -4 9 -19 20 -33 13 -17 20 -20 20 -11 0 8 -9 23 -20
33 -11 10 -20 15 -20 11z"/>
<path d="M3477 4530 c7 -8 20 -15 29 -16 9 -1 13 1 9 4 -4 4 -10 7 -13 7 -4 0
-14 4 -22 9 -12 7 -13 6 -3 -4z"/>
<path d="M3546 4515 c-11 -8 -16 -18 -12 -22 3 -4 16 3 29 15 24 25 12 29 -17
7z"/>
<path d="M4570 2936 c0 -2 7 -6 15 -10 8 -3 15 -1 15 4 0 6 -7 10 -15 10 -8 0
-15 -2 -15 -4z"/>
<path d="M5205 2760 c-3 -5 -1 -10 4 -10 6 0 11 5 11 10 0 6 -2 10 -4 10 -3 0
-8 -4 -11 -10z"/>
<path d="M5143 2715 c-18 -16 -23 -24 -13 -24 8 0 23 11 33 24 23 32 16 32
-20 0z"/>
<path d="M6295 3095 c-14 -10 -15 -13 -4 -9 25 8 30 -39 8 -75 -10 -16 -47
-70 -84 -120 -76 -107 -80 -83 38 -248 l81 -113 60 84 c34 46 75 104 93 129
30 44 44 50 71 34 7 -5 12 -3 12 3 0 6 5 8 10 5 19 -12 9 8 -42 81 -34 51 -56
73 -66 69 -10 -3 -12 0 -9 10 4 8 2 17 -3 20 -6 4 -10 -3 -10 -14 0 -37 -25
-28 -62 22 -21 28 -38 54 -38 59 0 10 17 11 23 1 2 -5 2 -3 1 4 -2 7 1 15 6
18 6 4 10 -4 10 -16 0 -12 3 -19 7 -16 3 4 13 1 22 -6 14 -11 15 -10 1 8 -30
42 -53 64 -62 59 -5 -3 -7 0 -6 8 4 19 -34 21 -57 3z"/>
<path d="M6410 2971 c0 -5 7 -12 16 -15 14 -5 15 -4 4 9 -14 17 -20 19 -20 6z"/>
<path d="M6623 2768 c5 -18 29 -16 34 2 4 13 3 13 -6 0 -7 -10 -11 -11 -11 -2
0 6 -5 12 -11 12 -6 0 -9 -6 -6 -12z"/>
<path d="M6456 2572 c-3 -4 4 -9 15 -9 23 -2 25 3 4 10 -8 4 -16 3 -19 -1z"/>
<path d="M6400 2429 c0 -5 5 -7 10 -4 6 3 10 8 10 11 0 2 -4 4 -10 4 -5 0 -10
-5 -10 -11z"/>
<path d="M6915 3068 c5 -13 10 -89 12 -170 3 -82 8 -148 11 -148 25 0 172 118
172 137 0 8 -4 11 -10 8 -6 -4 -7 1 -3 11 4 12 3 15 -5 10 -8 -5 -10 -2 -6 9
4 8 1 22 -6 30 -9 10 -9 15 -1 15 6 0 11 -4 11 -10 0 -5 8 -10 18 -10 21 1
-27 44 -113 101 -69 45 -91 50 -80 17z"/>
<path d="M7179 2844 c-22 -24 -27 -33 -13 -26 15 8 24 8 32 0 9 -9 11 -4 9 17
-1 17 4 30 12 33 10 3 12 0 8 -11 -4 -10 -2 -14 7 -11 7 3 13 11 13 19 0 26
-32 16 -68 -21z"/>
<path d="M9435 10230 c-3 -6 1 -13 10 -16 14 -6 14 -9 3 -16 -10 -8 -10 -9 1
-6 18 5 22 48 5 48 -7 0 -16 -5 -19 -10z"/>
<path d="M9659 10228 c0 -7 -2 -20 -4 -29 -1 -8 6 -21 17 -28 12 -7 17 -8 13
-2 -3 6 -2 11 3 11 6 0 13 7 16 16 3 8 2 12 -4 9 -6 -3 -10 -1 -10 4 0 6 5 11
10 11 6 0 10 5 10 10 0 15 -50 12 -51 -2z"/>
<path d="M9753 10220 c-3 -8 -7 -18 -7 -22 -1 -4 -10 -14 -21 -22 -16 -12 -18
-17 -7 -28 11 -11 12 -10 7 4 -5 14 -2 16 14 13 12 -2 19 0 16 6 -4 5 -2 9 4
9 6 0 8 8 4 18 -6 15 -5 15 15 -2 21 -18 21 -18 16 9 -3 17 -1 24 6 20 5 -3
10 -2 10 3 0 16 -49 8 -57 -8z"/>
<path d="M9826 10227 c3 -10 1 -17 -5 -17 -6 0 -11 -6 -11 -13 0 -8 6 -14 13
-14 14 0 17 40 4 53 -4 5 -5 1 -1 -9z"/>
<path d="M9905 10229 c-4 -6 -13 -8 -19 -6 -7 3 -18 -5 -26 -16 -12 -20 -12
-21 3 -8 9 7 26 11 37 8 15 -4 20 0 20 14 0 21 -6 24 -15 8z"/>
<path d="M9993 10224 c-7 -19 5 -34 22 -27 8 3 15 0 15 -7 0 -6 -4 -8 -10 -5
-5 3 -10 -3 -10 -14 0 -11 5 -23 10 -26 6 -4 9 -1 8 7 -2 7 5 12 14 12 10 -1
15 2 12 7 -10 17 9 9 21 -8 12 -16 12 -14 8 10 -3 17 -1 27 6 27 7 0 9 5 6 10
-3 6 -1 10 4 10 14 0 14 -27 1 -32 -6 -2 -4 -13 6 -26 9 -13 22 -21 30 -18 17
6 17 1 4 -25 -9 -15 -7 -19 5 -19 9 0 13 5 10 10 -3 6 -1 10 4 10 15 0 14 -12
-5 -38 -15 -22 -12 -42 7 -42 5 0 9 9 9 19 0 23 16 36 25 21 3 -5 0 -10 -7
-10 -10 0 -10 -2 1 -9 10 -7 8 -12 -11 -27 l-24 -18 39 -39 c21 -21 35 -42 31
-46 -4 -3 -9 0 -11 7 -3 6 -9 12 -15 12 -14 0 -5 -43 11 -48 9 -3 11 0 6 8 -6
10 -4 12 8 7 27 -10 22 48 -5 67 -12 9 -18 16 -13 16 6 0 3 5 -5 10 -13 9 -13
10 0 11 8 1 18 1 22 0 4 0 4 7 1 16 -4 11 -3 14 5 9 18 -11 15 25 -5 46 -9 10
-11 18 -5 18 6 0 12 -6 15 -12 2 -7 4 22 4 65 -1 76 -1 77 -26 77 -14 0 -38
-6 -53 -14 -19 -10 -28 -11 -31 -3 -5 17 -127 18 -134 1z m37 -4 c0 -5 -4 -10
-10 -10 -5 0 -10 5 -10 10 0 6 5 10 10 10 6 0 10 -4 10 -10z m35 -18 c-3 -3
-11 0 -18 7 -9 10 -8 11 6 5 10 -3 15 -9 12 -12z m155 -2 c0 -13 -5 -18 -15
-14 -16 7 -19 17 -8 27 12 13 23 7 23 -13z"/>
<path d="M8937 10222 c8 -5 9 -13 3 -22 -6 -8 -10 -18 -10 -22 0 -12 28 -10
35 2 10 17 -5 50 -23 50 -12 0 -13 -3 -5 -8z"/>
<path d="M9942 10200 c-16 -26 -15 -33 3 -27 8 4 17 1 21 -5 4 -7 3 -8 -4 -4
-7 4 -12 2 -12 -3 0 -14 17 -14 25 -1 4 6 11 8 16 5 15 -10 10 0 -14 28 -22
26 -23 26 -35 7z"/>
<path d="M10225 10000 c-3 -5 -1 -10 4 -10 6 0 11 5 11 10 0 6 -2 10 -4 10 -3
0 -8 -4 -11 -10z"/>
<path d="M10150 9949 c0 -5 5 -7 10 -4 6 3 10 8 10 11 0 2 -4 4 -10 4 -5 0
-10 -5 -10 -11z"/>
<path d="M10210 9567 c0 -16 3 -17 15 -7 8 7 15 16 15 20 0 3 -7 7 -15 7 -8 0
-15 -9 -15 -20z"/>
</g>
</svg>
